<svg version="1.1" id="Layer_1" xmlns="http://www.w3.org/2000/svg" xmlns:xlink="http://www.w3.org/1999/xlink" x="0px" y="0px"
	 viewBox="0 0 166.1 59.4" style="enable-background:new 0 0 166.1 59.4;" xml:space="preserve">
<style type="text/css">
	.st0{fill:#FFFFFF;}
	.st1{fill:#FFDC4F;}
	.st2{fill:#00664D;}
	.st3{fill:none;stroke:#6D6E70;stroke-width:0.2246;}
	.st4{fill:#6D6E70;}
</style>
<rect x="0.1" y="0.1" class="st0" width="40.1" height="40.1"/>
<g>
	<polygon class="st1" points="0,34.4 0,34.4 16.7,30.7 0,24.8 16.9,26.2 4.5,17.1 18.7,22.3 5.1,5 22.3,18.6 17.1,4.5 25.7,16.5 
		25,0 30.4,16.5 34.4,0 0,0 	"/>
	<polygon class="st2" points="34.4,0 34.4,34.4 0,34.4 0,40.4 40.4,40.4 40.4,0 	"/>
</g>
<g>
	<g>
		<g>
			<circle class="st3" cx="147" cy="18.8" r="2.1"/>
			<path class="st4" d="M146.6,17.6c0-0.1,0-0.1,0.1-0.1c0.7,0,0.8,0.3,0.8,0.6c0,0.2-0.1,0.6-0.7,0.6c-0.1,0-0.1,0-0.2,0V17.6z
				 M146,20c0.2,0,0.3,0,0.5,0c0.1,0,0.3,0,0.5,0v-0.1h-0.1c-0.2,0-0.2,0-0.2-0.2v-0.8c0.3,0,0.3,0,0.4,0.2l0.7,0.9
				c0.1,0,0.2,0,0.3,0c0.1,0,0.2,0,0.3,0v-0.1c-0.1,0-0.2,0-0.4-0.2l-0.5-0.7c-0.1-0.1-0.2-0.2-0.2-0.2c0.4-0.1,0.6-0.4,0.6-0.7
				c0-0.6-0.4-0.7-0.9-0.7c-0.2,0-0.3,0-0.6,0c-0.2,0-0.3,0-0.5,0v0.1h0.1c0.2,0,0.2,0,0.2,0.2v2C146.3,19.9,146.2,19.9,146,20
				L146,20L146,20z"/>
		</g>
	</g>
	<g>
		<g>
			<g>
				<path class="st4" d="M49.8,34.7V16.6h10.7v1.2h-7.3v7H60v1.2h-6.9v7.6h7.4v1.2H49.8z"/>
				<path class="st4" d="M65,16.6h5.9c6.5,0,9.6,4.6,9.6,9.4c0,5.8-3.7,8.7-9,8.7H65V16.6z M68.4,33.5h2.1c5.4,0,6.6-3.9,6.6-7.5
					c0-4.5-2.1-8.3-6.4-8.3h-2.3V33.5z"/>
				<path class="st4" d="M84.7,34.7V16.6h3.4v18.1H84.7z"/>
				<path class="st4" d="M94.4,31.5c0.9,1.5,2,2.3,3.7,2.3c1.6,0,3.2-1.3,3.2-3.1c0-5.2-8.5-2.8-8.5-9.2c0-2.9,2.4-5.3,5.8-5.3
					c2.2,0,4.5,1.2,5.4,3.2l-1.2,0.8c-0.7-1.5-1.8-2.6-3.7-2.6c-1.9,0-3,1.4-3,3.2c0,4.2,8.5,2.5,8.5,9c0,3.3-2.9,5.5-5.9,5.5
					c-2.5,0-4.4-0.7-5.7-2.8L94.4,31.5z"/>
				<path class="st4" d="M116.8,16.1c5.2,0,9,4.2,9,9.5c0,5.3-3.7,9.5-9,9.5c-5.2,0-8.9-4.2-8.9-9.5
					C107.8,20.3,111.6,16.1,116.8,16.1z M116.8,34c4.3,0,5.3-4.9,5.3-8.4c0-3.5-1-8.4-5.3-8.4c-4.3,0-5.3,4.9-5.3,8.4
					C111.5,29.2,112.4,34,116.8,34z"/>
				<path class="st4" d="M129.6,34.7V16.6h3l9.4,12.4h0.1V16.6h1.4v18.1h-1.5l-11-14.4h-0.1v14.4H129.6z"/>
			</g>
			<g>
				<path class="st4" d="M50.2,11.3c0.3,0.5,0.6,0.8,1.2,0.8c0.5,0,1.1-0.4,1.1-1c0-1.7-2.8-0.9-2.8-3c0-0.9,0.8-1.7,1.9-1.7
					c0.7,0,1.5,0.4,1.8,1.1L53,7.6c-0.2-0.5-0.6-0.8-1.2-0.8c-0.6,0-1,0.5-1,1c0,1.4,2.8,0.8,2.8,2.9c0,1.1-0.9,1.8-1.9,1.8
					c-0.8,0-1.4-0.2-1.9-0.9L50.2,11.3z"/>
				<path class="st4" d="M57.2,6.3c1.7,0,2.9,1.4,2.9,3.1c0,1.7-1.2,3.1-2.9,3.1c-1.7,0-2.9-1.4-2.9-3.1C54.3,7.6,55.5,6.3,57.2,6.3
					z M57.2,12.1c1.4,0,1.7-1.6,1.7-2.7c0-1.1-0.3-2.7-1.7-2.7c-1.4,0-1.7,1.6-1.7,2.7C55.5,10.5,55.8,12.1,57.2,12.1z"/>
				<path class="st4" d="M62.3,6.4v4.2c0,0.9,0.8,1.2,1.3,1.2c0.5,0,1.4-0.2,1.4-1.2V6.4h0.5v4.4c0,0.8-0.6,1.7-2.1,1.7
					c-1,0-2.2-0.4-2.2-1.9V6.4H62.3z"/>
				<path class="st4" d="M67.6,12.3V6.8h-1.2V6.4h3.5v0.4h-1.2v5.5H67.6z"/>
				<path class="st4" d="M70.8,12.3V6.4h1.1V9h2.4V6.4h1.1v5.9h-1.1V9.5h-2.4v2.8H70.8z"/>
				<path class="st4" d="M76.9,12.3V6.4h3.5v0.4H78v2.3h2.2v0.4H78v2.5h2.4v0.4H76.9z"/>
				<path class="st4" d="M81.6,12.3V6.4h2.6c1.1,0,1.7,0.8,1.7,1.7c0,0.9-0.7,1.3-1.5,1.4l1.6,2.8h-1.2l-1.6-3h0.1
					c1,0,1.6-0.4,1.6-1.3c0-0.7-0.3-1.3-1.4-1.3h-0.6v5.6H81.6z"/>
				<path class="st4" d="M86.9,12.3V6.4h1l3.1,4.1h0V6.4h0.5v5.9H91l-3.6-4.7h0v4.7H86.9z"/>
				<path class="st4" d="M101,7.7c-0.4-0.6-0.9-1.1-1.7-1.1c-1.4,0-2.2,1.1-2.2,2.8c0,1.3,0.7,2.6,2,2.6c0.9,0,1.6-0.5,2-1.3
					l0.4,0.2c-0.5,1.1-1.4,1.6-2.6,1.6c-1.7,0-3-1.4-3-3c0-1.9,1.4-3.2,3.1-3.2c0.9,0,1.8,0.5,2.3,1.2L101,7.7z"/>
				<path class="st4" d="M106.6,12.3h-1.1l-0.6-1.5h-2l-0.6,1.5h-0.5l2.4-6.1h0L106.6,12.3z M103.8,8.2l-0.9,2.2h1.7L103.8,8.2z"/>
				<path class="st4" d="M107.4,12.3V6.4h1.1v5.4h2.4v0.5H107.4z"/>
				<path class="st4" d="M111.7,12.3V6.4h1.1v5.9H111.7z"/>
				<path class="st4" d="M114.5,12.3V6.4h3.4v0.4h-2.3v2.3h2.1v0.4h-2.1v2.9H114.5z"/>
				<path class="st4" d="M121.3,6.3c1.7,0,2.9,1.4,2.9,3.1c0,1.7-1.2,3.1-2.9,3.1c-1.7,0-2.9-1.4-2.9-3.1
					C118.3,7.6,119.6,6.3,121.3,6.3z M121.3,12.1c1.4,0,1.7-1.6,1.7-2.7c0-1.1-0.3-2.7-1.7-2.7c-1.4,0-1.7,1.6-1.7,2.7
					C119.5,10.5,119.8,12.1,121.3,12.1z"/>
				<path class="st4" d="M125.2,12.3V6.4h2.6c1.1,0,1.7,0.8,1.7,1.7c0,0.9-0.7,1.3-1.5,1.4l1.6,2.8h-1.2l-1.6-3h0.1
					c1,0,1.6-0.4,1.6-1.3c0-0.7-0.3-1.3-1.4-1.3h-0.6v5.6H125.2z"/>
				<path class="st4" d="M130.5,12.3V6.4h1l3.1,4.1h0V6.4h0.5v5.9h-0.5L131,7.6h0v4.7H130.5z"/>
				<path class="st4" d="M136.6,12.3V6.4h1.1v5.9H136.6z"/>
				<path class="st4" d="M143.6,12.3h-1.1l-0.6-1.5h-2l-0.6,1.5h-0.5l2.4-6.1h0L143.6,12.3z M140.8,8.2l-0.9,2.2h1.7L140.8,8.2z"/>
			</g>
		</g>
	</g>
</g>
<g>
	<path class="st4" d="M5.2,56.2h-5v-9h5v0.9h-4V51h3.7V52H1.2v3.3h4V56.2z"/>
	<path class="st4" d="M11.5,56.2v-4.4c0-0.5-0.1-1-0.4-1.2c-0.2-0.3-0.6-0.4-1.2-0.4c-0.7,0-1.2,0.2-1.5,0.6c-0.3,0.4-0.5,1-0.5,1.9
		v3.5h-1v-6.7h0.8l0.2,0.9h0c0.2-0.3,0.5-0.6,0.9-0.8c0.4-0.2,0.8-0.3,1.3-0.3c0.8,0,1.4,0.2,1.8,0.6c0.4,0.4,0.6,1,0.6,1.9v4.4
		H11.5z"/>
	<path class="st4" d="M17.5,56.3c-1,0-1.8-0.3-2.4-0.9c-0.6-0.6-0.9-1.4-0.9-2.5c0-1.1,0.3-1.9,0.8-2.6c0.5-0.6,1.3-1,2.2-1
		c0.8,0,1.5,0.3,2,0.8c0.5,0.6,0.7,1.3,0.7,2.2V53h-4.6c0,0.8,0.2,1.4,0.6,1.8c0.4,0.4,0.9,0.6,1.6,0.6c0.7,0,1.4-0.2,2.1-0.5v0.9
		c-0.4,0.2-0.7,0.3-1,0.3C18.4,56.3,18,56.3,17.5,56.3z M17.2,50.2c-0.5,0-1,0.2-1.3,0.5c-0.3,0.4-0.5,0.8-0.6,1.5h3.5
		c0-0.6-0.1-1.1-0.4-1.5C18.2,50.4,17.8,50.2,17.2,50.2z"/>
	<path class="st4" d="M24.8,49.3c0.3,0,0.6,0,0.8,0.1l-0.1,0.9c-0.3-0.1-0.5-0.1-0.7-0.1c-0.5,0-1,0.2-1.4,0.7
		c-0.4,0.4-0.6,1-0.6,1.7v3.6h-1v-6.7h0.8l0.1,1.2h0c0.2-0.4,0.6-0.8,0.9-1C24,49.5,24.4,49.3,24.8,49.3z"/>
	<path class="st4" d="M32.5,49.5v0.6l-1.2,0.1c0.1,0.1,0.2,0.3,0.3,0.6c0.1,0.2,0.1,0.5,0.1,0.8c0,0.7-0.2,1.2-0.7,1.6
		c-0.5,0.4-1.1,0.6-1.9,0.6c-0.2,0-0.4,0-0.6,0c-0.4,0.2-0.7,0.5-0.7,0.9c0,0.2,0.1,0.3,0.2,0.4c0.2,0.1,0.4,0.1,0.8,0.1h1.2
		c0.7,0,1.3,0.2,1.7,0.5c0.4,0.3,0.6,0.8,0.6,1.3c0,0.7-0.3,1.3-0.9,1.7c-0.6,0.4-1.5,0.6-2.6,0.6c-0.9,0-1.6-0.2-2-0.5
		c-0.5-0.3-0.7-0.8-0.7-1.4c0-0.4,0.1-0.8,0.4-1.1c0.3-0.3,0.6-0.5,1.1-0.6c-0.2-0.1-0.3-0.2-0.4-0.4c-0.1-0.2-0.2-0.4-0.2-0.6
		c0-0.2,0.1-0.5,0.2-0.6c0.1-0.2,0.3-0.4,0.6-0.5c-0.3-0.1-0.6-0.4-0.9-0.7c-0.2-0.3-0.3-0.7-0.3-1.2c0-0.7,0.2-1.3,0.7-1.7
		c0.4-0.4,1.1-0.6,1.9-0.6c0.4,0,0.7,0,1,0.1H32.5z M27.2,57.3c0,0.4,0.2,0.6,0.5,0.8c0.3,0.2,0.7,0.3,1.3,0.3
		c0.9,0,1.5-0.1,1.9-0.4c0.4-0.3,0.6-0.6,0.6-1c0-0.4-0.1-0.6-0.3-0.8c-0.2-0.1-0.6-0.2-1.3-0.2h-1.2c-0.5,0-0.8,0.1-1.1,0.3
		C27.3,56.6,27.2,56.9,27.2,57.3z M27.7,51.6c0,0.5,0.1,0.8,0.4,1.1c0.3,0.2,0.6,0.4,1.1,0.4c1,0,1.5-0.5,1.5-1.4
		c0-1-0.5-1.5-1.5-1.5c-0.5,0-0.8,0.1-1.1,0.4C27.8,50.7,27.7,51.1,27.7,51.6z"/>
	<path class="st4" d="M33.5,49.5h1.1l1.5,3.8c0.3,0.9,0.5,1.5,0.6,1.9h0c0.1-0.2,0.2-0.6,0.3-1.1c0.2-0.5,0.7-2.1,1.7-4.7h1.1
		l-2.9,7.7c-0.3,0.8-0.6,1.3-1,1.6c-0.4,0.3-0.9,0.5-1.4,0.5c-0.3,0-0.6,0-0.9-0.1v-0.8c0.2,0,0.5,0.1,0.8,0.1
		c0.7,0,1.2-0.4,1.5-1.2l0.4-1L33.5,49.5z"/>
	<path class="st4" d="M47.3,50.3h-1.7v5.9h-1v-5.9h-1.2v-0.5l1.2-0.4v-0.4c0-1.7,0.7-2.5,2.2-2.5c0.4,0,0.8,0.1,1.3,0.2l-0.3,0.8
		c-0.4-0.1-0.7-0.2-1-0.2c-0.4,0-0.7,0.1-0.9,0.4c-0.2,0.3-0.3,0.7-0.3,1.2v0.4h1.7V50.3z"/>
	<path class="st4" d="M54.3,52.8c0,1.1-0.3,2-0.8,2.6c-0.6,0.6-1.3,0.9-2.3,0.9c-0.6,0-1.1-0.1-1.6-0.4c-0.5-0.3-0.8-0.7-1.1-1.2
		c-0.3-0.5-0.4-1.1-0.4-1.9c0-1.1,0.3-2,0.8-2.6c0.5-0.6,1.3-0.9,2.3-0.9c0.9,0,1.7,0.3,2.2,0.9C54.1,50.9,54.3,51.8,54.3,52.8z
		 M49.2,52.8c0,0.9,0.2,1.5,0.5,2c0.3,0.5,0.8,0.7,1.5,0.7c0.7,0,1.2-0.2,1.5-0.7c0.3-0.4,0.5-1.1,0.5-2c0-0.9-0.2-1.5-0.5-2
		c-0.3-0.4-0.9-0.7-1.5-0.7c-0.7,0-1.2,0.2-1.5,0.7C49.4,51.3,49.2,52,49.2,52.8z"/>
	<path class="st4" d="M59.2,49.3c0.3,0,0.6,0,0.8,0.1l-0.1,0.9c-0.3-0.1-0.5-0.1-0.7-0.1c-0.5,0-1,0.2-1.4,0.7
		c-0.4,0.4-0.6,1-0.6,1.7v3.6h-1v-6.7H57l0.1,1.2h0c0.2-0.4,0.6-0.8,0.9-1C58.4,49.5,58.8,49.3,59.2,49.3z"/>
	<path class="st4" d="M72.7,56.2h-1l-1.8-6c-0.1-0.3-0.2-0.6-0.3-1c-0.1-0.4-0.2-0.6-0.2-0.7c-0.1,0.5-0.2,1.1-0.4,1.8l-1.8,6h-1
		l-2.4-9h1.1l1.4,5.5c0.2,0.8,0.3,1.5,0.4,2.1c0.1-0.7,0.3-1.5,0.5-2.2l1.6-5.5h1.1l1.7,5.5c0.2,0.6,0.4,1.4,0.5,2.1
		c0.1-0.6,0.2-1.3,0.4-2.1l1.4-5.5h1.1L72.7,56.2z"/>
	<path class="st4" d="M81.1,56.2v-4.4c0-0.5-0.1-1-0.4-1.2c-0.2-0.3-0.6-0.4-1.2-0.4c-0.7,0-1.2,0.2-1.6,0.6c-0.3,0.4-0.5,1-0.5,1.9
		v3.5h-1v-9.6h1v2.9c0,0.3,0,0.6,0,0.9h0.1c0.2-0.3,0.5-0.6,0.9-0.8c0.4-0.2,0.8-0.3,1.3-0.3c0.8,0,1.4,0.2,1.9,0.6
		c0.4,0.4,0.6,1,0.6,1.9v4.4H81.1z"/>
	<path class="st4" d="M88.4,56.2l-0.2-1h0c-0.3,0.4-0.7,0.7-1,0.9c-0.3,0.1-0.8,0.2-1.2,0.2c-0.7,0-1.2-0.2-1.6-0.5
		c-0.4-0.3-0.6-0.8-0.6-1.5c0-1.4,1.1-2.1,3.3-2.1l1.1,0v-0.4c0-0.5-0.1-0.9-0.3-1.2c-0.2-0.3-0.6-0.4-1.1-0.4
		c-0.6,0-1.2,0.2-1.9,0.5l-0.3-0.8c0.3-0.2,0.7-0.3,1.1-0.4c0.4-0.1,0.8-0.2,1.2-0.2c0.8,0,1.4,0.2,1.8,0.5c0.4,0.4,0.6,0.9,0.6,1.7
		v4.6H88.4z M86.1,55.5c0.6,0,1.1-0.2,1.5-0.5c0.4-0.3,0.5-0.8,0.5-1.5v-0.6l-1,0c-0.8,0-1.4,0.2-1.8,0.4c-0.4,0.2-0.5,0.6-0.5,1
		c0,0.4,0.1,0.6,0.3,0.8C85.4,55.4,85.7,55.5,86.1,55.5z"/>
	<path class="st4" d="M93.5,55.5c0.2,0,0.4,0,0.5,0c0.2,0,0.3-0.1,0.4-0.1v0.8c-0.1,0.1-0.3,0.1-0.5,0.1c-0.2,0-0.4,0.1-0.6,0.1
		c-1.3,0-2-0.7-2-2.1v-4h-1v-0.5l1-0.4l0.4-1.4h0.6v1.6h2v0.8h-2v4c0,0.4,0.1,0.7,0.3,0.9C92.9,55.4,93.1,55.5,93.5,55.5z"/>
	<path class="st4" d="M97.3,47.2l0.1,0.1c-0.1,0.4-0.3,0.9-0.5,1.4c-0.2,0.5-0.4,1-0.6,1.5h-0.7c0.3-1.2,0.5-2.2,0.6-3.1H97.3z"/>
	<path class="st4" d="M102.9,54.4c0,0.6-0.2,1.1-0.7,1.4c-0.5,0.3-1.1,0.5-2,0.5c-0.9,0-1.6-0.1-2.1-0.4v-0.9c0.3,0.2,0.7,0.3,1,0.4
		c0.4,0.1,0.7,0.1,1.1,0.1c0.5,0,0.9-0.1,1.2-0.3c0.3-0.2,0.4-0.4,0.4-0.8c0-0.3-0.1-0.5-0.3-0.7c-0.2-0.2-0.7-0.4-1.3-0.7
		c-0.6-0.2-1.1-0.4-1.3-0.6c-0.3-0.2-0.5-0.4-0.6-0.6c-0.1-0.2-0.2-0.5-0.2-0.8c0-0.5,0.2-1,0.7-1.3c0.4-0.3,1.1-0.5,1.8-0.5
		c0.7,0,1.4,0.1,2.1,0.4l-0.4,0.8c-0.7-0.3-1.3-0.4-1.8-0.4c-0.5,0-0.8,0.1-1.1,0.2c-0.2,0.2-0.4,0.4-0.4,0.6c0,0.2,0,0.3,0.1,0.5
		c0.1,0.1,0.2,0.2,0.4,0.4c0.2,0.1,0.6,0.3,1.2,0.5c0.8,0.3,1.3,0.6,1.6,0.9C102.8,53.5,102.9,53.9,102.9,54.4z"/>
	<path class="st4" d="M113.8,56.2l-1.1-2.9h-3.6l-1.1,2.9h-1.1l3.5-9h0.9l3.5,9H113.8z M112.4,52.4l-1-2.8c-0.1-0.4-0.3-0.8-0.4-1.3
		c-0.1,0.4-0.2,0.8-0.4,1.3l-1.1,2.8H112.4z"/>
	<path class="st4" d="M120.8,56.2v-4.4c0-0.5-0.1-1-0.4-1.2c-0.2-0.3-0.6-0.4-1.2-0.4c-0.7,0-1.2,0.2-1.6,0.6
		c-0.3,0.4-0.5,1-0.5,1.9v3.5h-1v-9.6h1v2.9c0,0.3,0,0.6,0,0.9h0.1c0.2-0.3,0.5-0.6,0.9-0.8c0.4-0.2,0.8-0.3,1.3-0.3
		c0.8,0,1.4,0.2,1.9,0.6c0.4,0.4,0.6,1,0.6,1.9v4.4H120.8z"/>
	<path class="st4" d="M126.8,56.3c-1,0-1.8-0.3-2.4-0.9c-0.6-0.6-0.9-1.4-0.9-2.5c0-1.1,0.3-1.9,0.8-2.6c0.5-0.6,1.3-1,2.2-1
		c0.8,0,1.5,0.3,2,0.8c0.5,0.6,0.7,1.3,0.7,2.2V53h-4.6c0,0.8,0.2,1.4,0.6,1.8c0.4,0.4,0.9,0.6,1.6,0.6c0.7,0,1.4-0.2,2.1-0.5v0.9
		c-0.4,0.2-0.7,0.3-1,0.3C127.7,56.3,127.3,56.3,126.8,56.3z M126.5,50.2c-0.5,0-1,0.2-1.3,0.5c-0.3,0.4-0.5,0.8-0.6,1.5h3.5
		c0-0.6-0.1-1.1-0.4-1.5C127.5,50.4,127.1,50.2,126.5,50.2z"/>
	<path class="st4" d="M135.2,56.2l-0.2-1h0c-0.3,0.4-0.7,0.7-1,0.9c-0.3,0.1-0.7,0.2-1.2,0.2c-0.7,0-1.2-0.2-1.6-0.5
		c-0.4-0.3-0.6-0.8-0.6-1.5c0-1.4,1.1-2.1,3.3-2.1l1.1,0v-0.4c0-0.5-0.1-0.9-0.3-1.2c-0.2-0.3-0.6-0.4-1.1-0.4
		c-0.6,0-1.2,0.2-1.9,0.5l-0.3-0.8c0.3-0.2,0.7-0.3,1.1-0.4c0.4-0.1,0.8-0.2,1.2-0.2c0.8,0,1.4,0.2,1.8,0.5c0.4,0.4,0.6,0.9,0.6,1.7
		v4.6H135.2z M132.9,55.5c0.6,0,1.1-0.2,1.5-0.5c0.4-0.3,0.5-0.8,0.5-1.5v-0.6l-1,0c-0.8,0-1.4,0.2-1.8,0.4c-0.4,0.2-0.5,0.6-0.5,1
		c0,0.4,0.1,0.6,0.3,0.8C132.1,55.4,132.5,55.5,132.9,55.5z"/>
	<path class="st4" d="M142.6,55.3L142.6,55.3c-0.5,0.7-1.2,1-2.2,1c-0.9,0-1.6-0.3-2.1-0.9c-0.5-0.6-0.7-1.5-0.7-2.6
		c0-1.1,0.2-2,0.7-2.6c0.5-0.6,1.2-0.9,2.1-0.9c0.9,0,1.6,0.3,2.1,1h0.1l0-0.5l0-0.5v-2.7h1v9.6h-0.8L142.6,55.3z M140.6,55.5
		c0.7,0,1.2-0.2,1.5-0.6c0.3-0.4,0.5-1,0.5-1.8v-0.2c0-1-0.2-1.6-0.5-2c-0.3-0.4-0.8-0.6-1.5-0.6c-0.6,0-1.1,0.2-1.4,0.7
		c-0.3,0.5-0.5,1.1-0.5,2c0,0.9,0.2,1.5,0.5,1.9C139.5,55.2,140,55.5,140.6,55.5z"/>
</g>
<g>
	<path class="st4" d="M146.9,48.7c0,0.3-0.1,0.5-0.3,0.6c-0.2,0.1-0.4,0.2-0.8,0.2c-0.3,0-0.6,0-0.8-0.1v-0.3
		c0.1,0.1,0.2,0.1,0.4,0.1c0.1,0,0.3,0,0.4,0c0.2,0,0.4,0,0.5-0.1c0.1-0.1,0.2-0.2,0.2-0.4c0-0.1,0-0.2-0.1-0.2
		c0-0.1-0.1-0.1-0.2-0.2c-0.1-0.1-0.2-0.1-0.4-0.2c-0.3-0.1-0.5-0.2-0.6-0.3c-0.1-0.1-0.2-0.3-0.2-0.5c0-0.2,0.1-0.4,0.3-0.5
		c0.2-0.1,0.4-0.2,0.7-0.2c0.3,0,0.6,0.1,0.8,0.2l-0.1,0.3c-0.2-0.1-0.5-0.2-0.7-0.2c-0.2,0-0.3,0-0.4,0.1c-0.1,0.1-0.2,0.2-0.2,0.3
		c0,0.1,0,0.2,0.1,0.2c0,0.1,0.1,0.1,0.2,0.2c0.1,0.1,0.2,0.1,0.4,0.2c0.3,0.1,0.5,0.2,0.6,0.3C146.8,48.4,146.9,48.5,146.9,48.7z"
		/>
	<path class="st4" d="M148.9,49.5l-1-2.6h0c0,0.2,0,0.4,0,0.7v1.8h-0.3v-2.9h0.5L149,49h0l0.9-2.4h0.5v2.9h-0.3v-1.9
		c0-0.2,0-0.4,0-0.7h0l-1,2.6H148.9z"/>
</g>
</svg>
