<svg version="1.1" id="Layer_1" xmlns="http://www.w3.org/2000/svg" xmlns:xlink="http://www.w3.org/1999/xlink" x="0px" y="0px"
	 width="166.069px" height="59.412px" viewBox="0 0 166.069 59.412" enable-background="new 0 0 166.069 59.412"
	 xml:space="preserve">
<rect x="-0.982" y="-1.086" fill="#FFFFFF" width="46.924" height="47.167"/>
<g>
	<g>
		<rect fill="#FFFFFF" width="44.93" height="44.976"/>
		<g>
			<polygon fill="#000000" points="0.027,27.558 18.795,29.149 5.035,19.077 20.813,24.833 5.64,5.618 24.849,20.686 19.077,5.035 
				28.66,18.332 27.807,0.021 33.816,18.388 38.293,0 0,0 0,38.293 0.016,38.293 18.571,34.137 			"/>
			<polygon fill="#000000" points="0,38.316 38.293,38.316 38.293,0 44.93,0 44.93,44.999 0,44.999 			"/>
		</g>
	</g>
	<g>
		<g>
			<path fill="#000000" d="M0.11,57.433c0.406,0,0.512-0.251,0.763-0.852l2.044-4.907c0.024-0.058,0.041-0.098,0.081-0.098
				c0.033,0,0.056,0.032,0.081,0.098l2.044,5.069c0.219,0.527,0.349,0.689,0.681,0.689v0.195c-0.324-0.024-0.649-0.04-0.981-0.04
				c-0.317,0-0.633,0.016-0.95,0.04v-0.195c0.171,0,0.463,0,0.463-0.203c0-0.12-0.073-0.299-0.13-0.445l-0.431-1.112H1.643
				L1.18,56.809c-0.064,0.154-0.098,0.267-0.098,0.34c0,0.276,0.285,0.284,0.504,0.284v0.195c-0.267-0.024-0.535-0.04-0.803-0.04
				c-0.228,0-0.446,0.016-0.673,0.04V57.433z M2.738,52.979l-0.973,2.401h1.898L2.738,52.979z"/>
			<path fill="#000000" d="M6.209,57.433h0.146c0.275,0,0.381-0.081,0.381-0.502v-2.183c0-0.405-0.057-0.535-0.47-0.535H6.096
				v-0.195c0.398-0.049,0.779-0.195,1.104-0.39h0.186v0.778h0.016c0.211-0.234,0.795-0.77,1.347-0.77
				c0.698,0,1.127,0.43,1.127,1.411v1.883c0,0.421,0.105,0.502,0.381,0.502h0.146v0.195c-0.243-0.024-0.558-0.04-0.867-0.04
				c-0.309,0-0.625,0.016-0.868,0.04v-0.195h0.146c0.275,0,0.381-0.081,0.381-0.502v-1.915c0-0.503-0.218-0.844-0.738-0.844
				c-0.381,0-0.737,0.21-1.038,0.413v2.346c0,0.421,0.106,0.502,0.382,0.502h0.146v0.195c-0.243-0.024-0.56-0.04-0.867-0.04
				c-0.309,0-0.625,0.016-0.869,0.04V57.433z"/>
			<path fill="#000000" d="M14.643,53.069c0.106-0.488,0.146-0.698,0.146-0.869c0-0.138-0.088-0.219-0.373-0.219h-0.138v-0.195
				c0.625,0.041,1.29,0.041,1.963,0.041c0.666,0,1.331,0,1.979-0.041c-0.081,0.414-0.17,1.063-0.154,1.314h-0.195
				c0-0.94-0.34-1.021-1.12-1.021h-0.868c-0.122,0-0.178,0.032-0.202,0.121l-0.527,2.304h1.03c0.649,0,0.787-0.21,0.901-0.697h0.202
				c-0.356,1.452-0.089,0.268-0.389,1.68h-0.203c0.024-0.105,0.057-0.301,0.057-0.422c0-0.146-0.008-0.316-0.373-0.316h-1.29
				l-0.382,1.719c-0.024,0.114-0.154,0.667-0.154,0.771c0,0.081,0.057,0.098,0.163,0.098h0.421c0.958,0,2.077,0.064,2.442-1.12
				h0.203c-0.154,0.454-0.324,1.096-0.357,1.412c-0.706-0.04-1.412-0.04-2.117-0.04c-0.698,0-1.403,0-2.182,0.04v-0.195h0.104
				c0.341,0,0.439-0.097,0.504-0.396L14.643,53.069z"/>
			<path fill="#000000" d="M19.899,53.069c0.114-0.488,0.163-0.747,0.163-0.869c0-0.138-0.089-0.219-0.39-0.219h-0.137v-0.195
				c0.316,0.041,0.625,0.041,0.94,0.041c0.512,0,1.022-0.041,1.534-0.041c1.452,0,2.482,0.577,2.482,2.175
				c0,2.239-1.744,3.627-3.91,3.627h-1.347c-0.275,0-0.576,0.016-0.852,0.04v-0.195h0.105c0.341,0,0.438-0.097,0.503-0.396
				L19.899,53.069z M20.062,56.07c-0.122,0.552-0.17,0.738-0.17,0.933c0,0.324,0.235,0.341,0.722,0.341
				c1.898,0,2.985-1.728,2.985-3.294c0-1.403-0.682-2.02-2.158-2.02c-0.397,0-0.462,0.032-0.495,0.179L20.062,56.07z"/>
			<path fill="#000000" d="M26.615,56.272c-0.065,0.292-0.17,0.706-0.17,0.885c0,0.268,0.219,0.275,0.413,0.275h0.13v0.195
				c-0.348-0.04-0.706-0.04-1.055-0.04c-0.316,0-0.64,0-0.949,0.04v-0.195h0.105c0.34,0,0.438-0.097,0.503-0.396l0.909-3.967
				c0.114-0.488,0.163-0.747,0.163-0.869c0-0.138-0.089-0.219-0.39-0.219h-0.138v-0.195c0.325,0.041,0.665,0.041,0.998,0.041
				c0.324,0,0.657,0,0.981-0.041v0.195h-0.081c-0.414,0-0.479,0.13-0.576,0.567L26.615,56.272z"/>
			<path fill="#000000" d="M30.653,51.689c0.317,0,0.568,0.058,0.787,0.13c0.219,0.073,0.397,0.138,0.552,0.138
				c0.138,0,0.275-0.024,0.406-0.081c-0.115,0.397-0.268,1.055-0.317,1.436h-0.195c0-0.697-0.398-1.379-1.151-1.379
				c-0.552,0-1.055,0.333-1.055,0.949c0,1.104,2.239,1.622,2.239,3.123c0,1.111-0.94,1.72-1.882,1.72
				c-0.292,0-0.56-0.081-0.795-0.146c-0.243-0.064-0.454-0.138-0.649-0.138c-0.162,0-0.316,0.064-0.454,0.17
				c0.146-0.6,0.301-1.403,0.381-2.052h0.195c-0.057,0.867,0.414,1.825,1.363,1.825c0.6,0,1.16-0.406,1.16-1.063
				c0-1.322-2.238-1.679-2.238-3.123C28.999,52.241,29.785,51.689,30.653,51.689z"/>
			<path fill="#000000" d="M36.566,51.689c1.378,0,2.248,0.925,2.248,2.345c0,1.922-1.388,3.69-3.545,3.69
				c-1.379,0-2.248-0.924-2.248-2.344C33.021,53.556,34.506,51.689,36.566,51.689z M35.43,57.385c1.695,0,2.492-2.102,2.492-3.505
				c0-1.071-0.657-1.947-1.534-1.947c-1.46,0-2.474,2.093-2.474,3.505C33.914,56.508,34.553,57.385,35.43,57.385z"/>
			<path fill="#000000" d="M43.802,56.232h0.015l0.795-3.618c0.016-0.09,0.057-0.268,0.057-0.39c0-0.243-0.292-0.243-0.43-0.243
				h-0.114v-0.195c0.268,0,0.625,0.041,0.812,0.041c0.186,0,0.373-0.041,0.56-0.041v0.195c-0.398,0-0.421,0.098-0.52,0.504
				l-1.192,5.158c-0.008,0.032-0.015,0.081-0.064,0.081c-0.033,0-0.073-0.064-0.163-0.243l-2.425-4.754h-0.017l-0.883,4.073
				c-0.017,0.089-0.057,0.267-0.057,0.389c0,0.243,0.235,0.243,0.43,0.243h0.114v0.195c-0.267-0.017-0.543-0.04-0.812-0.04
				c-0.186,0-0.373,0.023-0.56,0.04v-0.195c0.446,0,0.462-0.26,0.519-0.502l1.031-4.567c-0.187-0.382-0.267-0.382-0.502-0.382
				v-0.195c0.21,0.024,0.389,0.041,0.583,0.041c0.186,0,0.34-0.017,0.527-0.041L43.802,56.232z"/>
			<path fill="#000000" d="M49.565,56.272c-0.065,0.292-0.171,0.706-0.171,0.885c0,0.268,0.219,0.275,0.415,0.275h0.13v0.195
				c-0.349-0.04-0.707-0.04-1.055-0.04c-0.316,0-0.641,0-0.95,0.04v-0.195h0.107c0.34,0,0.437-0.097,0.502-0.396l0.908-3.967
				c0.114-0.488,0.162-0.747,0.162-0.869c0-0.138-0.089-0.219-0.39-0.219h-0.137v-0.195c0.324,0.041,0.665,0.041,0.997,0.041
				c0.325,0,0.657,0,0.982-0.041v0.195h-0.081c-0.415,0-0.479,0.13-0.576,0.567L49.565,56.272z"/>
			<path fill="#000000" d="M55.649,56.232h0.015l0.795-3.618c0.016-0.09,0.057-0.268,0.057-0.39c0-0.243-0.292-0.243-0.43-0.243
				h-0.114v-0.195c0.267,0,0.625,0.041,0.811,0.041c0.188,0,0.374-0.041,0.561-0.041v0.195c-0.397,0-0.421,0.098-0.519,0.504
				l-1.193,5.158c-0.007,0.032-0.016,0.081-0.064,0.081c-0.033,0-0.073-0.064-0.162-0.243l-2.426-4.754h-0.017l-0.883,4.073
				c-0.017,0.089-0.057,0.267-0.057,0.389c0,0.243,0.236,0.243,0.431,0.243h0.113v0.195c-0.267-0.017-0.543-0.04-0.811-0.04
				c-0.188,0-0.374,0.023-0.561,0.04v-0.195c0.446,0,0.463-0.26,0.519-0.502l1.031-4.567c-0.186-0.382-0.267-0.382-0.504-0.382
				v-0.195c0.212,0.024,0.39,0.041,0.585,0.041c0.186,0,0.34-0.017,0.527-0.041L55.649,56.232z"/>
			<path fill="#000000" d="M60.083,52.079h-0.438c-0.828,0-1.379,0.348-1.646,1.232h-0.203c0.154-0.511,0.316-1.062,0.438-1.525
				c0.576,0.041,1.242,0.041,2.224,0.041c1.144,0,1.971,0,2.466-0.041c-0.138,0.463-0.381,1.347-0.381,1.525h-0.203
				c0.024-0.13,0.057-0.315,0.057-0.47c0-0.682-0.397-0.763-0.941-0.763h-0.527l-0.957,4.193c-0.065,0.292-0.17,0.73-0.17,0.909
				c0,0.243,0.203,0.251,0.413,0.251h0.13v0.195c-0.373-0.024-0.706-0.04-1.054-0.04c-0.317,0-0.689,0-1.135,0.04v-0.195h0.292
				c0.301,0,0.438-0.097,0.502-0.396L60.083,52.079z"/>
			<path fill="#000000" d="M64,53.069c0.106-0.488,0.146-0.698,0.146-0.869c0-0.138-0.089-0.219-0.374-0.219h-0.137v-0.195
				c0.625,0.041,1.289,0.041,1.962,0.041c0.667,0,1.331,0,1.979-0.041c-0.08,0.414-0.169,1.063-0.153,1.314h-0.195
				c0-0.94-0.34-1.021-1.119-1.021h-0.869c-0.122,0-0.178,0.032-0.202,0.121l-0.528,2.304h1.031c0.649,0,0.786-0.21,0.9-0.697h0.203
				c-0.356,1.452-0.089,0.268-0.39,1.68h-0.202c0.024-0.105,0.057-0.301,0.057-0.422c0-0.146-0.008-0.316-0.373-0.316h-1.291
				l-0.381,1.719c-0.024,0.114-0.154,0.667-0.154,0.771c0,0.081,0.057,0.098,0.162,0.098h0.422c0.958,0,2.077,0.064,2.442-1.12
				h0.202c-0.153,0.454-0.324,1.096-0.356,1.412c-0.706-0.04-1.412-0.04-2.118-0.04c-0.698,0-1.404,0-2.183,0.04v-0.195h0.105
				c0.34,0,0.438-0.097,0.504-0.396L64,53.069z"/>
			<path fill="#000000" d="M69.256,53.069c0.114-0.488,0.162-0.747,0.162-0.869c0-0.138-0.088-0.219-0.389-0.219h-0.138v-0.195
				c0.317,0.041,0.625,0.041,0.941,0.041c0.479,0,0.958-0.041,1.436-0.041c0.827,0,1.573,0.293,1.573,1.226
				c0,1.111-0.981,1.606-1.866,1.654v0.017c0.081,0.09,0.179,0.219,0.244,0.365l0.828,1.753c0.154,0.333,0.284,0.632,0.778,0.632
				h0.089v0.195c-0.211-0.033-0.43-0.04-0.657-0.04c-0.22,0-0.421,0.007-0.633,0.04l-1.217-2.548
				c-0.114-0.234-0.203-0.324-0.462-0.324h-0.244l-0.333,1.517c-0.065,0.292-0.17,0.706-0.17,0.885c0,0.268,0.284,0.275,0.414,0.275
				h0.13v0.195c-0.35-0.04-0.706-0.04-1.055-0.04c-0.316,0-0.64,0-0.949,0.04v-0.195h0.105c0.341,0,0.439-0.097,0.503-0.396
				L69.256,53.069z M69.75,54.561h0.259c1.039,0,1.94-0.291,1.94-1.5c0-0.893-0.593-1.03-1.331-1.03c-0.138,0-0.276,0-0.309,0.13
				L69.75,54.561z"/>
			<path fill="#000000" d="M78.007,56.232h0.016l0.796-3.618c0.015-0.09,0.057-0.268,0.057-0.39c0-0.243-0.292-0.243-0.431-0.243
				h-0.114v-0.195c0.268,0,0.625,0.041,0.812,0.041c0.186,0,0.373-0.041,0.56-0.041v0.195c-0.398,0-0.422,0.098-0.519,0.504
				l-1.192,5.158c-0.009,0.032-0.017,0.081-0.066,0.081c-0.031,0-0.073-0.064-0.162-0.243l-2.425-4.754h-0.017l-0.885,4.073
				c-0.016,0.089-0.057,0.267-0.057,0.389c0,0.243,0.236,0.243,0.43,0.243h0.115v0.195c-0.268-0.017-0.544-0.04-0.812-0.04
				c-0.186,0-0.373,0.023-0.559,0.04v-0.195c0.446,0,0.462-0.26,0.519-0.502l1.03-4.567c-0.187-0.382-0.268-0.382-0.503-0.382
				v-0.195c0.21,0.024,0.389,0.041,0.584,0.041c0.187,0,0.34-0.017,0.527-0.041L78.007,56.232z"/>
			<path fill="#000000" d="M84.154,57.085c0.049,0.348,0.324,0.348,0.584,0.348v0.195c-0.317-0.04-0.649-0.04-0.973-0.04
				c-0.317,0-0.633,0-0.941,0.04v-0.195c0.292,0,0.502,0,0.502-0.26c0-0.13-0.016-0.252-0.032-0.364l-0.129-1.186h-2.012
				l-0.569,0.885c-0.21,0.333-0.404,0.633-0.404,0.738c0,0.162,0.153,0.187,0.339,0.187h0.13v0.195
				c-0.251-0.04-0.511-0.04-0.762-0.04c-0.203,0-0.406,0-0.601,0.04v-0.195c0.325,0,0.414-0.138,0.577-0.382l3.211-4.98
				c0.228-0.356,0.26-0.454,0.333-0.454c0.089,0,0.073,0.187,0.114,0.397L84.154,57.085z M82.873,52.947h-0.016l-1.55,2.434h1.834
				L82.873,52.947z"/>
			<path fill="#000000" d="M88,52.079h-0.438c-0.828,0-1.379,0.348-1.647,1.232h-0.203c0.155-0.511,0.317-1.062,0.439-1.525
				c0.575,0.041,1.241,0.041,2.222,0.041c1.144,0,1.971,0,2.466-0.041c-0.138,0.463-0.381,1.347-0.381,1.525h-0.203
				c0.024-0.13,0.058-0.315,0.058-0.47c0-0.682-0.398-0.763-0.942-0.763h-0.526l-0.958,4.193c-0.065,0.292-0.171,0.73-0.171,0.909
				c0,0.243,0.203,0.251,0.415,0.251h0.13v0.195c-0.374-0.024-0.707-0.04-1.055-0.04c-0.316,0-0.689,0-1.136,0.04v-0.195h0.292
				c0.3,0,0.438-0.097,0.502-0.396L88,52.079z"/>
			<path fill="#000000" d="M92.029,56.272c-0.065,0.292-0.169,0.706-0.169,0.885c0,0.268,0.218,0.275,0.412,0.275h0.131v0.195
				c-0.35-0.04-0.707-0.04-1.056-0.04c-0.316,0-0.641,0-0.949,0.04v-0.195h0.106c0.34,0,0.437-0.097,0.502-0.396l0.908-3.967
				c0.114-0.488,0.163-0.747,0.163-0.869c0-0.138-0.089-0.219-0.39-0.219h-0.138v-0.195c0.324,0.041,0.665,0.041,0.997,0.041
				c0.326,0,0.658,0,0.982-0.041v0.195h-0.081c-0.413,0-0.479,0.13-0.575,0.567L92.029,56.272z"/>
			<path fill="#000000" d="M97.479,51.689c1.379,0,2.247,0.925,2.247,2.345c0,1.922-1.388,3.69-3.546,3.69
				c-1.377,0-2.246-0.924-2.246-2.344C93.935,53.556,95.419,51.689,97.479,51.689z M96.345,57.385c1.693,0,2.49-2.102,2.49-3.505
				c0-1.071-0.658-1.947-1.533-1.947c-1.461,0-2.475,2.093-2.475,3.505C94.827,56.508,95.468,57.385,96.345,57.385z"/>
			<path fill="#000000" d="M104.714,56.232h0.017l0.796-3.618c0.016-0.09,0.057-0.268,0.057-0.39c0-0.243-0.293-0.243-0.432-0.243
				h-0.112v-0.195c0.268,0,0.625,0.041,0.812,0.041c0.186,0,0.372-0.041,0.559-0.041v0.195c-0.396,0-0.422,0.098-0.518,0.504
				l-1.193,5.158c-0.008,0.032-0.016,0.081-0.064,0.081c-0.032,0-0.074-0.064-0.162-0.243l-2.426-4.754h-0.016l-0.885,4.073
				c-0.018,0.089-0.059,0.267-0.059,0.389c0,0.243,0.236,0.243,0.432,0.243h0.113v0.195c-0.268-0.017-0.545-0.04-0.812-0.04
				c-0.186,0-0.372,0.023-0.56,0.04v-0.195c0.447,0,0.463-0.26,0.52-0.502l1.031-4.567c-0.188-0.382-0.27-0.382-0.504-0.382v-0.195
				c0.211,0.024,0.389,0.041,0.584,0.041c0.186,0,0.341-0.017,0.527-0.041L104.714,56.232z"/>
			<path fill="#000000" d="M110.862,57.085c0.049,0.348,0.324,0.348,0.582,0.348v0.195c-0.315-0.04-0.647-0.04-0.973-0.04
				c-0.315,0-0.633,0-0.94,0.04v-0.195c0.292,0,0.503,0,0.503-0.26c0-0.13-0.016-0.252-0.033-0.364l-0.129-1.186h-2.012
				l-0.568,0.885c-0.21,0.333-0.405,0.633-0.405,0.738c0,0.162,0.154,0.187,0.341,0.187h0.129v0.195
				c-0.25-0.04-0.51-0.04-0.762-0.04c-0.203,0-0.406,0-0.601,0.04v-0.195c0.325,0,0.413-0.138,0.575-0.382l3.213-4.98
				c0.228-0.356,0.26-0.454,0.333-0.454c0.089,0,0.073,0.187,0.112,0.397L110.862,57.085z M109.58,52.947h-0.017l-1.549,2.434h1.834
				L109.58,52.947z"/>
			<path fill="#000000" d="M113.587,56.467c-0.024,0.114-0.154,0.667-0.154,0.771c0,0.081,0.057,0.098,0.162,0.098h0.512
				c1.119,0,1.809-0.179,2.385-1.29h0.202c-0.251,0.503-0.478,1.029-0.714,1.582c-0.527-0.033-1.354-0.04-1.922-0.04
				c-1.006,0-1.525,0.007-2.215,0.04v-0.195h0.268c0.341,0,0.438-0.097,0.504-0.396l0.908-3.967
				c0.113-0.488,0.162-0.747,0.162-0.869c0-0.138-0.09-0.219-0.389-0.219h-0.139v-0.195c0.324,0.041,0.664,0.041,0.997,0.041
				c0.325,0,0.657,0,1.103-0.041v0.195h-0.201c-0.414,0-0.479,0.13-0.576,0.567L113.587,56.467z"/>
			<path fill="#000000" d="M130.483,53.767c-0.121-0.885-0.787-1.785-1.646-1.785c-1.07,0-2.013,0.706-2.013,2.539
				c0,1.712,1.137,2.718,2.126,2.718c0.746,0,1.469-0.454,1.761-0.981l0.195,0.081c-0.455,0.811-1.266,1.387-2.296,1.387
				c-1.469,0-2.678-1.209-2.678-2.782c0-2.061,1.217-3.253,2.701-3.253c0.283,0,0.527,0.04,0.755,0.089
				c0.356,0.09,0.633,0.195,0.819,0.195c0.162,0,0.309-0.025,0.397-0.058c0,0.073-0.024,0.146-0.024,0.276
				c0,0.228,0.033,1.128,0.098,1.574H130.483z"/>
			<path fill="#000000" d="M131.487,55.704c0-1.306,0.894-2.067,1.924-2.067c0.891,0,1.914,0.584,1.914,2.02
				c0,1.307-0.958,2.068-1.914,2.068C132.559,57.725,131.487,57.141,131.487,55.704z M133.605,57.336
				c0.373,0,1.038-0.146,1.038-1.476c0-1.015-0.406-1.98-1.281-1.98c-0.301,0-1.193,0.146-1.193,1.477
				C132.169,56.192,132.656,57.336,133.605,57.336z"/>
			<path fill="#000000" d="M135.907,57.433h0.146c0.275,0,0.381-0.081,0.381-0.502v-2.175c0-0.406-0.057-0.535-0.471-0.535h-0.17
				v-0.195c0.397-0.049,0.779-0.194,1.104-0.389h0.187v0.713h0.016c0.405-0.389,0.78-0.713,1.259-0.713
				c0.51,0,0.933,0.267,1.038,0.713c0.453-0.438,0.852-0.713,1.313-0.713c0.803,0,1.047,0.616,1.047,1.136v2.158
				c0,0.421,0.105,0.502,0.381,0.502h0.146v0.195c-0.244-0.024-0.561-0.04-0.868-0.04s-0.625,0.016-0.868,0.04v-0.195h0.146
				c0.275,0,0.382-0.081,0.382-0.502v-2.045c0-0.243-0.033-0.812-0.697-0.812c-0.391,0-0.795,0.366-0.941,0.495v2.361
				c0,0.421,0.105,0.502,0.381,0.502h0.146v0.195c-0.244-0.024-0.561-0.04-0.867-0.04c-0.31,0-0.626,0.016-0.869,0.04v-0.195h0.146
				c0.276,0,0.382-0.081,0.382-0.502v-2.045c0-0.243-0.033-0.812-0.697-0.812c-0.39,0-0.795,0.366-0.941,0.495v2.361
				c0,0.421,0.105,0.502,0.381,0.502h0.146v0.195c-0.244-0.024-0.56-0.04-0.868-0.04c-0.308,0-0.624,0.016-0.868,0.04V57.433z"/>
			<path fill="#000000" d="M142.793,59.218h0.161c0.422,0,0.479-0.276,0.479-0.666v-3.796c0-0.406-0.058-0.535-0.472-0.535h-0.169
				v-0.195c0.397-0.049,0.778-0.194,1.103-0.389h0.188v0.794h0.016c0.26-0.454,0.682-0.794,1.25-0.794
				c0.98,0,1.484,0.94,1.484,1.695c0,1.347-0.715,2.296-1.753,2.296c-0.438,0-0.778-0.252-0.95-0.455h-0.015v1.379
				c0,0.39,0.058,0.666,0.479,0.666h0.162v0.194c-0.309-0.024-0.648-0.04-0.981-0.04c-0.332,0-0.674,0.016-0.981,0.04V59.218z
				 M144.115,56.76c0.3,0.35,0.526,0.527,0.94,0.527c0.755,0,1.144-0.763,1.144-1.469c0-0.917-0.356-1.646-1.192-1.646
				c-0.333,0-0.64,0.186-0.892,0.486V56.76z"/>
			<path fill="#000000" d="M149.825,54.594c0-0.536-0.203-0.714-0.657-0.714c-0.364,0-0.689,0.138-0.689,0.624
				c0,0.373,0,0.487-0.333,0.487c-0.316,0-0.349-0.105-0.349-0.333c0-0.722,0.649-1.021,1.322-1.021c0.965,0,1.386,0.3,1.386,1.257
				v2.109c0,0.162,0.01,0.284,0.123,0.284c0.114,0,0.227-0.073,0.324-0.163l0.082,0.13c-0.195,0.203-0.504,0.471-0.811,0.471
				c-0.334,0-0.398-0.349-0.398-0.56v-0.178c-0.365,0.381-0.812,0.737-1.355,0.737c-0.535,0-0.925-0.413-0.925-0.965
				c0-0.877,0.665-1.298,2.28-1.582V54.594z M149.825,55.356c-0.52,0.138-1.55,0.479-1.55,1.184c0,0.356,0.243,0.649,0.608,0.649
				c0.357,0,0.665-0.195,0.941-0.381V55.356z"/>
			<path fill="#000000" d="M151.511,57.433h0.146c0.276,0,0.382-0.081,0.382-0.502v-2.183c0-0.405-0.057-0.535-0.47-0.535h-0.171
				v-0.195c0.397-0.049,0.778-0.195,1.103-0.39h0.188v0.778h0.016c0.211-0.234,0.795-0.77,1.348-0.77
				c0.697,0,1.127,0.43,1.127,1.411v1.883c0,0.421,0.105,0.502,0.381,0.502h0.146v0.195c-0.243-0.024-0.561-0.04-0.869-0.04
				c-0.308,0-0.625,0.016-0.867,0.04v-0.195h0.146c0.275,0,0.381-0.081,0.381-0.502v-1.915c0-0.503-0.22-0.844-0.737-0.844
				c-0.382,0-0.739,0.21-1.039,0.413v2.346c0,0.421,0.105,0.502,0.381,0.502h0.146v0.195c-0.243-0.024-0.559-0.04-0.867-0.04
				s-0.625,0.016-0.869,0.04V57.433z"/>
			<path fill="#000000" d="M156.638,54.602c-0.26-0.616-0.293-0.674-0.6-0.674v-0.193c0.275,0.048,0.551,0.039,0.827,0.039
				c0.267,0,0.535,0.009,0.802-0.039v0.193c-0.178,0-0.438,0-0.438,0.179c0,0.098,0.04,0.219,0.211,0.642l0.754,1.89h0.018
				l0.664-2.102c0.073-0.227,0.09-0.364,0.09-0.453c0-0.155-0.276-0.155-0.414-0.155v-0.193c0.211,0.039,0.422,0.039,0.633,0.039
				c0.171,0,0.35,0.009,0.512-0.039v0.193c-0.252,0-0.309,0.049-0.463,0.495l-1.119,3.326c-0.463,1.371-0.803,1.663-1.347,1.663
				c-0.39,0-0.593-0.243-0.593-0.608c0-0.26,0.105-0.414,0.357-0.414c0.325,0,0.325,0.235,0.325,0.414
				c0,0.219,0.105,0.268,0.186,0.268c0.154,0,0.3-0.089,0.544-0.771l0.275-0.755L156.638,54.602z"/>
			<g>
				<circle fill="none" stroke="#000000" stroke-width="0.25" cx="120.099" cy="53.732" r="2.283"/>
				<path fill="#000000" d="M119.689,52.447c0-0.088,0.021-0.097,0.148-0.097c0.747,0,0.835,0.366,0.835,0.721
					c0,0.258-0.107,0.672-0.795,0.672c-0.068,0-0.137-0.004-0.188-0.008V52.447z M118.962,55.095
					c0.18-0.012,0.367-0.021,0.539-0.021c0.141,0,0.328,0.01,0.509,0.021V55h-0.097c-0.18,0-0.224-0.041-0.224-0.249v-0.889
					c0.331,0,0.339,0.024,0.487,0.216l0.778,1.017c0.104-0.012,0.212-0.021,0.319-0.021c0.112,0,0.221,0.01,0.328,0.021V55
					c-0.16-0.013-0.239-0.028-0.399-0.237l-0.569-0.74c-0.089-0.111-0.172-0.188-0.236-0.239c0.479-0.101,0.713-0.415,0.713-0.788
					c0-0.624-0.473-0.786-0.997-0.786c-0.185,0-0.368,0.022-0.612,0.022c-0.172,0-0.359-0.011-0.539-0.022v0.097h0.096
					c0.18,0,0.224,0.039,0.224,0.248v2.197c0,0.208-0.044,0.249-0.224,0.249h-0.096V55.095z"/>
			</g>
			<g>
				<circle fill="none" stroke="#000000" stroke-width="0.25" cx="163.786" cy="20.873" r="2.283"/>
				<path fill="#000000" d="M163.376,19.588c0-0.088,0.021-0.097,0.148-0.097c0.748,0,0.836,0.366,0.836,0.721
					c0,0.258-0.107,0.672-0.795,0.672c-0.068,0-0.137-0.004-0.189-0.008V19.588z M162.649,22.235
					c0.179-0.012,0.366-0.021,0.538-0.021c0.141,0,0.328,0.01,0.509,0.021v-0.095H163.6c-0.18,0-0.224-0.041-0.224-0.249v-0.889
					c0.331,0,0.34,0.024,0.488,0.216l0.777,1.017c0.104-0.012,0.212-0.021,0.32-0.021c0.112,0,0.221,0.01,0.328,0.021v-0.095
					c-0.161-0.013-0.24-0.028-0.399-0.237l-0.57-0.74c-0.088-0.111-0.171-0.188-0.235-0.239c0.478-0.101,0.713-0.415,0.713-0.788
					c0-0.624-0.474-0.786-0.998-0.786c-0.184,0-0.367,0.022-0.612,0.022c-0.172,0-0.359-0.011-0.538-0.022v0.097h0.096
					c0.179,0,0.223,0.039,0.223,0.248v2.197c0,0.208-0.044,0.249-0.223,0.249h-0.096V22.235z"/>
			</g>
		</g>
		<g>
			<g>
				<g>
					<path fill="#000000" d="M55.394,38.611v-20.11H67.28v1.303h-8.1v7.759h7.635v1.303H59.18v8.441h8.224v1.304H55.394z"/>
					<path fill="#000000" d="M72.384,18.501h6.548c7.262,0,10.707,5.151,10.707,10.428c0,6.424-4.127,9.682-9.993,9.682h-7.262
						V18.501z M76.169,37.308h2.358c6.052,0,7.325-4.376,7.325-8.316c0-5.06-2.359-9.187-7.138-9.187h-2.545V37.308z"/>
					<path fill="#000000" d="M94.336,38.611v-20.11h3.786v20.11H94.336z"/>
					<path fill="#000000" d="M105.111,35.012c1.056,1.676,2.173,2.575,4.159,2.575c1.737,0,3.6-1.396,3.6-3.476
						c0-5.835-9.435-3.072-9.435-10.272c0-3.228,2.7-5.897,6.454-5.897c2.484,0,4.997,1.367,6.053,3.6l-1.304,0.839
						c-0.776-1.614-1.985-2.855-4.128-2.855c-2.078,0-3.289,1.583-3.289,3.507c0,4.717,9.435,2.73,9.435,9.993
						c0,3.692-3.228,6.145-6.61,6.145c-2.731,0-4.935-0.807-6.332-3.135L105.111,35.012z"/>
					<path fill="#000000" d="M130.005,17.942c5.835,0,9.993,4.687,9.993,10.614c0,5.929-4.158,10.614-9.993,10.614
						c-5.804,0-9.962-4.686-9.962-10.614C120.043,22.629,124.201,17.942,130.005,17.942z M130.005,37.867
						c4.842,0,5.928-5.401,5.928-9.312s-1.086-9.31-5.928-9.31s-5.896,5.399-5.896,9.31S125.163,37.867,130.005,37.867z"/>
					<path fill="#000000" d="M144.292,38.611v-20.11h3.383l10.52,13.841h0.062V18.501h1.613v20.11h-1.676l-12.227-16.045h-0.062
						v16.045H144.292z"/>
				</g>
				<g>
					<path fill="#000000" d="M55.84,12.536c0.345,0.548,0.71,0.842,1.359,0.842c0.568,0,1.176-0.456,1.176-1.136
						c0-1.906-3.083-1.004-3.083-3.356c0-1.055,0.882-1.927,2.109-1.927c0.812,0,1.633,0.446,1.978,1.176l-0.426,0.274
						c-0.253-0.527-0.649-0.933-1.349-0.933c-0.679,0-1.075,0.517-1.075,1.146c0,1.541,3.083,0.893,3.083,3.265
						c0,1.207-1.055,2.007-2.16,2.007c-0.893,0-1.612-0.263-2.069-1.023L55.84,12.536z"/>
					<path fill="#000000" d="M63.688,6.959c1.907,0,3.266,1.532,3.266,3.468c0,1.937-1.358,3.467-3.266,3.467
						c-1.896,0-3.254-1.53-3.254-3.467C60.433,8.491,61.792,6.959,63.688,6.959z M63.688,13.47c1.583,0,1.938-1.766,1.938-3.042
						c0-1.278-0.355-3.042-1.938-3.042c-1.582,0-1.926,1.764-1.926,3.042C61.762,11.704,62.106,13.47,63.688,13.47z"/>
					<path fill="#000000" d="M69.326,7.142v4.695c0,1.015,0.893,1.389,1.399,1.389c0.578,0,1.583-0.202,1.583-1.328V7.142h0.527
						v4.908c0,0.842-0.64,1.845-2.303,1.845c-1.084,0-2.443-0.415-2.443-2.088V7.142H69.326z"/>
					<path fill="#000000" d="M75.208,13.712V7.567H73.9V7.142h3.853v0.426h-1.309v6.145H75.208z"/>
					<path fill="#000000" d="M78.799,13.712v-6.57h1.237v2.89h2.697v-2.89h1.237v6.57h-1.237v-3.163h-2.697v3.163H78.799z"/>
					<path fill="#000000" d="M85.625,13.712v-6.57h3.884v0.426h-2.647v2.535h2.495v0.426h-2.495v2.759h2.688v0.425H85.625z"/>
					<path fill="#000000" d="M90.85,13.712v-6.57h2.839c1.195,0,1.865,0.883,1.865,1.937c0,1.004-0.729,1.44-1.713,1.562
						l1.744,3.072h-1.359l-1.795-3.366h0.082c1.095,0,1.805-0.425,1.805-1.409c0-0.73-0.355-1.47-1.562-1.47h-0.669v6.245H90.85z"/>
					<path fill="#000000" d="M96.731,13.712v-6.57h1.105l3.438,4.522h0.02V7.142h0.527v6.57h-0.547L97.278,8.47h-0.02v5.242H96.731z
						"/>
					<path fill="#000000" d="M112.432,8.582c-0.477-0.619-1.024-1.196-1.896-1.196c-1.603,0-2.414,1.176-2.414,3.072
						c0,1.48,0.75,2.92,2.262,2.92c0.974,0,1.805-0.578,2.18-1.44L113,12.15c-0.599,1.238-1.603,1.744-2.86,1.744
						c-1.855,0-3.346-1.551-3.346-3.386c0-2.1,1.541-3.55,3.467-3.55c1.035,0,1.969,0.548,2.536,1.358L112.432,8.582z"/>
					<path fill="#000000" d="M118.61,13.712h-1.268l-0.699-1.714h-2.261l-0.659,1.714h-0.578l2.676-6.753h0.021L118.61,13.712z
						 M115.508,9.159l-0.954,2.414h1.918L115.508,9.159z"/>
					<path fill="#000000" d="M119.535,13.712v-6.57h1.236v6.054h2.638v0.517H119.535z"/>
					<path fill="#000000" d="M124.392,13.712v-6.57h1.238v6.57H124.392z"/>
					<path fill="#000000" d="M127.413,13.712v-6.57h3.771v0.426h-2.535v2.535h2.312v0.426h-2.312v3.184H127.413z"/>
					<path fill="#000000" d="M134.988,6.959c1.907,0,3.266,1.532,3.266,3.468c0,1.937-1.358,3.467-3.266,3.467
						c-1.896,0-3.255-1.53-3.255-3.467C131.733,8.491,133.092,6.959,134.988,6.959z M134.988,13.47c1.582,0,1.938-1.766,1.938-3.042
						c0-1.278-0.355-3.042-1.938-3.042c-1.581,0-1.927,1.764-1.927,3.042C133.062,11.704,133.407,13.47,134.988,13.47z"/>
					<path fill="#000000" d="M139.388,13.712v-6.57h2.84c1.196,0,1.865,0.883,1.865,1.937c0,1.004-0.73,1.44-1.713,1.562
						l1.744,3.072h-1.359l-1.795-3.366h0.081c1.095,0,1.806-0.425,1.806-1.409c0-0.73-0.355-1.47-1.562-1.47h-0.669v6.245H139.388z"
						/>
					<path fill="#000000" d="M145.271,13.712v-6.57h1.105l3.438,4.522h0.02V7.142h0.527v6.57h-0.547l-3.995-5.242h-0.021v5.242
						H145.271z"/>
					<path fill="#000000" d="M152.097,13.712v-6.57h1.236v6.57H152.097z"/>
					<path fill="#000000" d="M159.873,13.712h-1.267l-0.7-1.714h-2.261l-0.66,1.714h-0.578l2.678-6.753h0.02L159.873,13.712z
						 M156.771,9.159l-0.953,2.414h1.916L156.771,9.159z"/>
				</g>
			</g>
		</g>
	</g>
</g>
</svg>
