<svg version="1.1" id="Layer_1" xmlns="http://www.w3.org/2000/svg" xmlns:xlink="http://www.w3.org/1999/xlink" x="0px" y="0px"
	 width="952px" height="102px" viewBox="0 0 952 102" enable-background="new 0 0 952 102" xml:space="preserve">
<g>
	<g>
		<g>
			<path fill="#EDEDED" d="M950.59,95.319c0,2.796-2.287,5.084-5.084,5.084H614.689c-2.796,0-5.083-2.288-5.083-5.084V6.681
				c0-2.796,2.287-5.084,5.083-5.084h330.816c2.797,0,5.084,2.288,5.084,5.084V95.319z"/>
		</g>
		<g>
			<path fill="#DDDDDD" d="M945.506,101.813H614.689c-3.58,0-6.493-2.914-6.493-6.494V6.681c0-3.58,2.913-6.494,6.493-6.494h330.816
				c3.58,0,6.494,2.914,6.494,6.494v88.639C952,98.899,949.086,101.813,945.506,101.813z M614.689,3.007
				c-2.025,0-3.674,1.648-3.674,3.674v88.639c0,2.025,1.648,3.674,3.674,3.674h330.816c2.025,0,3.674-1.648,3.674-3.674V6.681
				c0-2.025-1.648-3.674-3.674-3.674H614.689z"/>
		</g>
	</g>
	<g>
		<g>
			<path fill="#417300" d="M300.044,6.681c0-2.796,2.288-5.084,5.084-5.084h316.714c2.797,0,6.237,1.978,7.645,4.393l23.679,40.618
				c1.407,2.415,1.407,6.368,0,8.784l-23.679,40.619c-1.407,2.415-4.848,4.393-7.645,4.393H305.128
				c-2.796,0-5.084-2.288-5.084-5.084V6.681z"/>
		</g>
		<g>
			<path fill="#DDDDDD" d="M621.842,101.813H305.128c-3.581,0-6.494-2.914-6.494-6.494V6.681c0-3.58,2.913-6.494,6.494-6.494
				h316.714c3.306,0,7.198,2.237,8.863,5.092l23.679,40.618c1.666,2.861,1.666,7.344,0,10.205l-23.679,40.62
				C629.04,99.576,625.147,101.813,621.842,101.813z M305.128,3.007c-2.026,0-3.674,1.648-3.674,3.674v88.639
				c0,2.025,1.647,3.674,3.674,3.674h316.714c2.276,0,5.28-1.726,6.426-3.693l23.679-40.619c1.144-1.961,1.144-5.402,0-7.363
				L628.268,6.7c-1.146-1.968-4.149-3.693-6.426-3.693H305.128z"/>
		</g>
	</g>
	<g>
		<g>
			<path fill="#9D9D9D" d="M753.226,46.893c-0.173-0.275-0.386-0.517-0.644-0.726c-0.258-0.207-0.548-0.369-0.873-0.486
				c-0.323-0.117-0.664-0.175-1.019-0.175c-0.649,0-1.2,0.127-1.653,0.377c-0.452,0.251-0.82,0.587-1.102,1.01
				c-0.282,0.423-0.485,0.903-0.615,1.441c-0.128,0.538-0.192,1.097-0.192,1.672c0,0.551,0.064,1.085,0.192,1.605
				c0.13,0.521,0.333,0.988,0.615,1.404c0.281,0.416,0.649,0.751,1.102,1.001c0.453,0.253,1.004,0.376,1.653,0.376
				c0.881,0,1.569-0.269,2.066-0.807c0.496-0.54,0.799-1.249,0.909-2.13h2.791c-0.074,0.819-0.265,1.56-0.57,2.221
				s-0.71,1.226-1.212,1.689c-0.502,0.466-1.089,0.821-1.763,1.064c-0.673,0.245-1.414,0.369-2.222,0.369
				c-1.004,0-1.906-0.176-2.709-0.523c-0.802-0.35-1.478-0.83-2.028-1.442c-0.551-0.611-0.974-1.33-1.267-2.157
				c-0.295-0.826-0.44-1.717-0.44-2.671c0-0.98,0.146-1.89,0.44-2.728c0.293-0.839,0.716-1.57,1.267-2.194
				c0.551-0.625,1.227-1.113,2.028-1.469c0.803-0.355,1.705-0.533,2.709-0.533c0.723,0,1.404,0.104,2.047,0.312
				c0.644,0.208,1.219,0.511,1.728,0.909c0.506,0.397,0.927,0.891,1.257,1.478c0.33,0.588,0.538,1.261,0.625,2.02h-2.791
				C753.506,47.471,753.396,47.168,753.226,46.893z"/>
		</g>
		<g>
			<path fill="#9D9D9D" d="M758.2,49.703c0.232-0.62,0.563-1.146,0.991-1.581c0.429-0.434,0.943-0.771,1.543-1.01
				s1.273-0.357,2.02-0.357s1.424,0.119,2.03,0.357c0.605,0.238,1.122,0.576,1.552,1.01c0.428,0.436,0.759,0.961,0.991,1.581
				c0.231,0.616,0.349,1.305,0.349,2.065c0,0.759-0.117,1.443-0.349,2.056c-0.232,0.613-0.563,1.136-0.991,1.57
				c-0.43,0.435-0.946,0.768-1.552,1.001c-0.606,0.232-1.284,0.35-2.03,0.35s-1.42-0.117-2.02-0.35
				c-0.6-0.233-1.114-0.566-1.543-1.001c-0.428-0.435-0.759-0.957-0.991-1.57c-0.232-0.612-0.349-1.297-0.349-2.056
				C757.852,51.008,757.968,50.319,758.2,49.703z M760.568,52.878c0.075,0.361,0.2,0.687,0.378,0.974
				c0.176,0.288,0.413,0.518,0.706,0.688c0.293,0.173,0.661,0.258,1.102,0.258s0.812-0.085,1.111-0.258
				c0.301-0.171,0.539-0.4,0.716-0.688c0.178-0.287,0.304-0.612,0.376-0.974c0.074-0.36,0.11-0.73,0.11-1.109
				c0-0.38-0.036-0.753-0.11-1.121c-0.072-0.366-0.198-0.691-0.376-0.972c-0.177-0.283-0.415-0.513-0.716-0.689
				c-0.3-0.179-0.671-0.267-1.111-0.267s-0.809,0.088-1.102,0.267c-0.293,0.177-0.53,0.406-0.706,0.689
				c-0.178,0.28-0.303,0.605-0.378,0.972c-0.072,0.368-0.109,0.741-0.109,1.121C760.459,52.147,760.496,52.518,760.568,52.878z"/>
		</g>
		<g>
			<path fill="#9D9D9D" d="M771.844,47.012v1.322h0.055c0.331-0.551,0.759-0.951,1.287-1.203c0.525-0.251,1.064-0.376,1.615-0.376
				c0.697,0,1.27,0.095,1.717,0.285c0.446,0.189,0.799,0.453,1.056,0.789c0.258,0.337,0.438,0.747,0.542,1.229
				c0.104,0.484,0.156,1.019,0.156,1.608v5.838h-2.607v-5.361c0-0.782-0.123-1.369-0.368-1.755s-0.679-0.578-1.303-0.578
				c-0.71,0-1.226,0.212-1.544,0.634c-0.317,0.424-0.476,1.118-0.476,2.084v4.977h-2.608v-9.493H771.844z"/>
		</g>
		<g>
			<path fill="#9D9D9D" d="M779.262,48.756v-1.744h1.561v-0.735c0-0.844,0.264-1.535,0.79-2.073c0.526-0.54,1.322-0.809,2.387-0.809
				c0.232,0,0.465,0.01,0.698,0.027c0.232,0.019,0.46,0.035,0.68,0.046v1.947c-0.307-0.037-0.625-0.056-0.955-0.056
				c-0.355,0-0.609,0.083-0.762,0.248c-0.154,0.165-0.23,0.443-0.23,0.835v0.569h1.8v1.744h-1.8v7.749h-2.607v-7.749H779.262z"/>
		</g>
		<g>
			<path fill="#9D9D9D" d="M786.441,45.543v-2.148h2.608v2.148H786.441z M789.05,47.012v9.493h-2.608v-9.493H789.05z"/>
		</g>
		<g>
			<path fill="#9D9D9D" d="M793.584,47.012v1.763h0.037c0.123-0.294,0.288-0.565,0.496-0.817c0.208-0.251,0.446-0.464,0.716-0.642
				c0.271-0.178,0.558-0.315,0.863-0.413c0.306-0.1,0.624-0.147,0.954-0.147c0.173,0,0.361,0.031,0.57,0.092v2.424
				c-0.122-0.024-0.27-0.047-0.44-0.063c-0.172-0.02-0.337-0.027-0.496-0.027c-0.478,0-0.882,0.08-1.213,0.236
				c-0.33,0.16-0.596,0.378-0.799,0.653c-0.201,0.275-0.346,0.598-0.431,0.964c-0.085,0.367-0.128,0.766-0.128,1.193v4.278h-2.608
				v-9.493H793.584z"/>
		</g>
		<g>
			<path fill="#9D9D9D" d="M800.782,47.012v1.286h0.037c0.343-0.49,0.756-0.87,1.239-1.14c0.483-0.269,1.038-0.403,1.662-0.403
				c0.599,0,1.146,0.117,1.643,0.349c0.496,0.233,0.873,0.643,1.131,1.23c0.28-0.416,0.663-0.783,1.146-1.102
				c0.483-0.319,1.057-0.478,1.718-0.478c0.501,0,0.966,0.062,1.395,0.183c0.429,0.124,0.796,0.319,1.102,0.588
				c0.306,0.271,0.545,0.621,0.716,1.057c0.173,0.436,0.258,0.958,0.258,1.569v6.354h-2.606v-5.38c0-0.317-0.013-0.618-0.037-0.898
				c-0.025-0.283-0.093-0.526-0.203-0.735c-0.109-0.208-0.272-0.374-0.485-0.496c-0.215-0.123-0.506-0.185-0.873-0.185
				c-0.366,0-0.664,0.071-0.89,0.212c-0.228,0.141-0.405,0.325-0.533,0.551s-0.215,0.485-0.258,0.771
				c-0.042,0.288-0.063,0.578-0.063,0.873v5.287h-2.607v-5.324c0-0.282-0.007-0.561-0.018-0.836
				c-0.013-0.275-0.065-0.529-0.157-0.763c-0.091-0.231-0.245-0.419-0.459-0.56c-0.215-0.141-0.53-0.212-0.946-0.212
				c-0.122,0-0.284,0.027-0.485,0.083c-0.203,0.055-0.398,0.159-0.588,0.313c-0.19,0.151-0.353,0.372-0.486,0.661
				c-0.135,0.286-0.202,0.664-0.202,1.129v5.508h-2.608v-9.493H800.782z"/>
		</g>
		<g>
			<path fill="#9D9D9D" d="M814.775,49.932c0.037-0.611,0.189-1.121,0.458-1.523c0.271-0.404,0.613-0.729,1.029-0.975
				c0.416-0.244,0.884-0.419,1.404-0.523c0.521-0.104,1.044-0.155,1.569-0.155c0.479,0,0.962,0.034,1.452,0.101
				c0.488,0.068,0.937,0.199,1.34,0.395c0.404,0.197,0.735,0.469,0.992,0.817c0.257,0.35,0.386,0.812,0.386,1.388v4.938
				c0,0.43,0.023,0.841,0.073,1.231c0.048,0.391,0.135,0.686,0.258,0.881h-2.646c-0.049-0.146-0.088-0.297-0.118-0.448
				c-0.032-0.154-0.053-0.31-0.065-0.47c-0.416,0.428-0.906,0.729-1.469,0.899c-0.563,0.172-1.139,0.259-1.726,0.259
				c-0.453,0-0.876-0.056-1.267-0.165c-0.393-0.11-0.735-0.282-1.029-0.516c-0.294-0.232-0.523-0.525-0.688-0.881
				s-0.247-0.776-0.247-1.267c0-0.54,0.093-0.983,0.283-1.332s0.436-0.627,0.735-0.836c0.3-0.208,0.643-0.363,1.028-0.468
				c0.386-0.104,0.774-0.187,1.165-0.248c0.393-0.061,0.778-0.11,1.157-0.146c0.38-0.037,0.717-0.092,1.011-0.165
				c0.293-0.074,0.525-0.182,0.698-0.322c0.17-0.141,0.25-0.346,0.238-0.614c0-0.282-0.046-0.507-0.139-0.672
				c-0.092-0.165-0.215-0.292-0.367-0.386c-0.153-0.091-0.33-0.151-0.531-0.182c-0.203-0.031-0.42-0.047-0.653-0.047
				c-0.514,0-0.918,0.11-1.212,0.331c-0.293,0.22-0.465,0.586-0.514,1.102H814.775z M820.799,51.859
				c-0.11,0.099-0.248,0.175-0.414,0.229c-0.165,0.056-0.343,0.101-0.532,0.138c-0.19,0.037-0.389,0.067-0.597,0.093
				c-0.208,0.024-0.417,0.055-0.625,0.091c-0.195,0.037-0.389,0.085-0.578,0.147c-0.19,0.062-0.355,0.145-0.496,0.248
				c-0.141,0.103-0.253,0.235-0.339,0.395c-0.087,0.16-0.129,0.361-0.129,0.606c0,0.231,0.042,0.428,0.129,0.586
				c0.086,0.16,0.201,0.285,0.349,0.378c0.147,0.091,0.318,0.155,0.514,0.192c0.195,0.036,0.398,0.056,0.605,0.056
				c0.516,0,0.913-0.086,1.194-0.258c0.282-0.171,0.49-0.376,0.625-0.615c0.134-0.238,0.216-0.479,0.248-0.725
				c0.03-0.245,0.046-0.44,0.046-0.588V51.859z"/>
		</g>
		<g>
			<path fill="#9D9D9D" d="M830.64,47.012v1.744h-1.909v4.701c0,0.44,0.074,0.735,0.22,0.881c0.147,0.147,0.44,0.221,0.882,0.221
				c0.146,0,0.287-0.006,0.422-0.019c0.136-0.012,0.264-0.03,0.386-0.055v2.02c-0.22,0.036-0.465,0.062-0.733,0.075
				c-0.271,0.011-0.533,0.017-0.791,0.017c-0.403,0-0.786-0.028-1.146-0.083c-0.361-0.055-0.679-0.161-0.954-0.319
				c-0.276-0.16-0.493-0.386-0.653-0.681c-0.158-0.295-0.238-0.68-0.238-1.156v-5.602h-1.579v-1.744h1.579v-2.846h2.607v2.846
				H830.64z"/>
		</g>
		<g>
			<path fill="#9D9D9D" d="M831.962,45.543v-2.148h2.608v2.148H831.962z M834.57,47.012v9.493h-2.608v-9.493H834.57z"/>
		</g>
		<g>
			<path fill="#9D9D9D" d="M836.681,49.703c0.233-0.62,0.563-1.146,0.991-1.581c0.429-0.434,0.943-0.771,1.543-1.01
				c0.601-0.238,1.273-0.357,2.02-0.357c0.747,0,1.424,0.119,2.03,0.357c0.605,0.238,1.122,0.576,1.552,1.01
				c0.428,0.436,0.759,0.961,0.991,1.581c0.231,0.616,0.349,1.305,0.349,2.065c0,0.759-0.117,1.443-0.349,2.056
				c-0.232,0.613-0.563,1.136-0.991,1.57c-0.43,0.435-0.946,0.768-1.552,1.001c-0.606,0.232-1.283,0.35-2.03,0.35
				c-0.746,0-1.419-0.117-2.02-0.35c-0.6-0.233-1.114-0.566-1.543-1.001c-0.428-0.435-0.758-0.957-0.991-1.57
				c-0.232-0.612-0.349-1.297-0.349-2.056C836.332,51.008,836.448,50.319,836.681,49.703z M839.05,52.878
				c0.074,0.361,0.199,0.687,0.377,0.974c0.176,0.288,0.413,0.518,0.706,0.688c0.294,0.173,0.661,0.258,1.102,0.258
				c0.441,0,0.812-0.085,1.111-0.258c0.301-0.171,0.539-0.4,0.717-0.688c0.177-0.287,0.303-0.612,0.375-0.974
				c0.075-0.36,0.11-0.73,0.11-1.109c0-0.38-0.035-0.753-0.11-1.121c-0.072-0.366-0.198-0.691-0.375-0.972
				c-0.178-0.283-0.416-0.513-0.717-0.689c-0.3-0.179-0.67-0.267-1.111-0.267c-0.44,0-0.808,0.088-1.102,0.267
				c-0.293,0.177-0.53,0.406-0.706,0.689c-0.178,0.28-0.303,0.605-0.377,0.972c-0.073,0.368-0.11,0.741-0.11,1.121
				C838.939,52.147,838.977,52.518,839.05,52.878z"/>
		</g>
		<g>
			<path fill="#9D9D9D" d="M850.324,47.012v1.322h0.056c0.33-0.551,0.759-0.951,1.286-1.203c0.525-0.251,1.064-0.376,1.615-0.376
				c0.697,0,1.27,0.095,1.717,0.285c0.446,0.189,0.799,0.453,1.057,0.789c0.257,0.337,0.438,0.747,0.541,1.229
				c0.104,0.484,0.156,1.019,0.156,1.608v5.838h-2.607v-5.361c0-0.782-0.123-1.369-0.368-1.755s-0.679-0.578-1.303-0.578
				c-0.71,0-1.226,0.212-1.543,0.634c-0.318,0.424-0.477,1.118-0.477,2.084v4.977h-2.608v-9.493H850.324z"/>
		</g>
	</g>
	<g>
		<g>
			<path fill="#FFFFFF" d="M447.988,43.395v2.424h-6.923v2.811h6.354v2.239h-6.354v3.214h7.069v2.423h-9.952v-13.11H447.988z"/>
		</g>
		<g>
			<path fill="#FFFFFF" d="M452.285,47.012v1.322h0.056c0.33-0.551,0.759-0.951,1.285-1.203c0.526-0.251,1.064-0.376,1.616-0.376
				c0.697,0,1.27,0.095,1.716,0.285c0.447,0.189,0.799,0.453,1.057,0.789c0.257,0.337,0.438,0.747,0.541,1.229
				c0.104,0.484,0.156,1.019,0.156,1.608v5.838h-2.607v-5.361c0-0.782-0.122-1.369-0.367-1.755s-0.679-0.578-1.304-0.578
				c-0.71,0-1.225,0.212-1.542,0.634c-0.319,0.424-0.479,1.118-0.479,2.084v4.977h-2.606v-9.493H452.285z"/>
		</g>
		<g>
			<path fill="#FFFFFF" d="M463.174,47.012v1.763h0.037c0.122-0.294,0.287-0.565,0.495-0.817c0.208-0.251,0.447-0.464,0.717-0.642
				c0.269-0.178,0.557-0.315,0.863-0.413c0.306-0.1,0.624-0.147,0.955-0.147c0.171,0,0.36,0.031,0.568,0.092v2.424
				c-0.122-0.024-0.27-0.047-0.44-0.063c-0.172-0.02-0.337-0.027-0.496-0.027c-0.477,0-0.881,0.08-1.212,0.236
				c-0.33,0.16-0.597,0.378-0.798,0.653c-0.203,0.275-0.347,0.598-0.433,0.964c-0.086,0.367-0.128,0.766-0.128,1.193v4.278h-2.607
				v-9.493H463.174z"/>
		</g>
		<g>
			<path fill="#FFFFFF" d="M467.562,49.703c0.233-0.62,0.563-1.146,0.992-1.581c0.429-0.434,0.942-0.771,1.543-1.01
				c0.6-0.238,1.272-0.357,2.019-0.357c0.747,0,1.424,0.119,2.029,0.357c0.606,0.238,1.123,0.576,1.552,1.01
				c0.429,0.436,0.759,0.961,0.992,1.581c0.232,0.616,0.349,1.305,0.349,2.065c0,0.759-0.116,1.443-0.349,2.056
				c-0.233,0.613-0.563,1.136-0.992,1.57s-0.945,0.768-1.552,1.001c-0.605,0.232-1.282,0.35-2.029,0.35
				c-0.746,0-1.419-0.117-2.019-0.35c-0.601-0.233-1.114-0.566-1.543-1.001s-0.759-0.957-0.992-1.57
				c-0.232-0.612-0.349-1.297-0.349-2.056C467.214,51.008,467.33,50.319,467.562,49.703z M469.932,52.878
				c0.073,0.361,0.198,0.687,0.376,0.974c0.178,0.288,0.413,0.518,0.707,0.688c0.294,0.173,0.661,0.258,1.102,0.258
				c0.441,0,0.812-0.085,1.111-0.258c0.3-0.171,0.539-0.4,0.717-0.688c0.177-0.287,0.303-0.612,0.376-0.974
				c0.073-0.36,0.11-0.73,0.11-1.109c0-0.38-0.037-0.753-0.11-1.121c-0.073-0.366-0.199-0.691-0.376-0.972
				c-0.178-0.283-0.417-0.513-0.717-0.689c-0.3-0.179-0.67-0.267-1.111-0.267c-0.44,0-0.808,0.088-1.102,0.267
				c-0.294,0.177-0.529,0.406-0.707,0.689c-0.178,0.28-0.303,0.605-0.376,0.972c-0.073,0.368-0.109,0.741-0.109,1.121
				C469.822,52.147,469.858,52.518,469.932,52.878z"/>
		</g>
		<g>
			<path fill="#FFFFFF" d="M481.408,43.395v13.11h-2.607v-13.11H481.408z"/>
		</g>
		<g>
			<path fill="#FFFFFF" d="M486.146,43.395v13.11h-2.607v-13.11H486.146z"/>
		</g>
		<g>
			<path fill="#FFFFFF" d="M490.736,47.012v1.286h0.037c0.341-0.49,0.754-0.87,1.239-1.14c0.481-0.269,1.037-0.403,1.66-0.403
				c0.601,0,1.148,0.117,1.645,0.349c0.496,0.233,0.873,0.643,1.129,1.23c0.281-0.416,0.664-0.783,1.148-1.102
				c0.482-0.319,1.055-0.478,1.716-0.478c0.501,0,0.967,0.062,1.396,0.183c0.429,0.124,0.796,0.319,1.102,0.588
				c0.306,0.271,0.545,0.621,0.716,1.057s0.257,0.958,0.257,1.569v6.354h-2.607v-5.38c0-0.317-0.012-0.618-0.037-0.898
				c-0.024-0.283-0.091-0.526-0.201-0.735c-0.109-0.208-0.272-0.374-0.487-0.496c-0.215-0.123-0.504-0.185-0.871-0.185
				c-0.368,0-0.665,0.071-0.892,0.212c-0.226,0.141-0.403,0.325-0.531,0.551c-0.129,0.226-0.215,0.485-0.259,0.771
				c-0.041,0.288-0.063,0.578-0.063,0.873v5.287h-2.608v-5.324c0-0.282-0.005-0.561-0.018-0.836s-0.064-0.529-0.155-0.763
				c-0.093-0.231-0.245-0.419-0.46-0.56c-0.214-0.141-0.529-0.212-0.945-0.212c-0.123,0-0.284,0.027-0.487,0.083
				c-0.201,0.055-0.396,0.159-0.586,0.313c-0.19,0.151-0.353,0.372-0.488,0.661c-0.135,0.286-0.2,0.664-0.2,1.129v5.508h-2.608
				v-9.493H490.736z"/>
		</g>
		<g>
			<path fill="#FFFFFF" d="M507.629,54.228c0.393,0.38,0.955,0.57,1.69,0.57c0.525,0,0.979-0.132,1.357-0.396
				c0.38-0.263,0.612-0.541,0.699-0.836h2.294c-0.366,1.139-0.931,1.953-1.688,2.443c-0.761,0.49-1.678,0.735-2.756,0.735
				c-0.746,0-1.42-0.121-2.02-0.358c-0.601-0.239-1.107-0.578-1.523-1.021c-0.417-0.44-0.738-0.967-0.964-1.579
				c-0.228-0.611-0.342-1.285-0.342-2.019c0-0.711,0.117-1.372,0.35-1.983c0.233-0.612,0.563-1.143,0.992-1.589
				c0.43-0.446,0.938-0.799,1.534-1.056c0.592-0.258,1.25-0.386,1.973-0.386c0.809,0,1.512,0.155,2.111,0.468
				c0.601,0.312,1.093,0.731,1.479,1.258c0.386,0.527,0.664,1.126,0.836,1.801c0.172,0.672,0.232,1.377,0.184,2.111h-6.85
				C507.023,53.236,507.237,53.849,507.629,54.228z M510.577,49.234c-0.313-0.344-0.787-0.515-1.424-0.515
				c-0.415,0-0.763,0.07-1.038,0.212c-0.275,0.141-0.495,0.314-0.661,0.523c-0.165,0.206-0.28,0.427-0.348,0.661
				c-0.067,0.231-0.107,0.44-0.12,0.623h4.241C511.106,50.077,510.889,49.576,510.577,49.234z"/>
		</g>
		<g>
			<path fill="#FFFFFF" d="M517.856,47.012v1.322h0.055c0.331-0.551,0.761-0.951,1.286-1.203c0.526-0.251,1.064-0.376,1.617-0.376
				c0.696,0,1.27,0.095,1.716,0.285c0.446,0.189,0.799,0.453,1.056,0.789c0.258,0.337,0.437,0.747,0.541,1.229
				c0.105,0.484,0.157,1.019,0.157,1.608v5.838h-2.607v-5.361c0-0.782-0.123-1.369-0.366-1.755
				c-0.246-0.386-0.681-0.578-1.306-0.578c-0.709,0-1.223,0.212-1.543,0.634c-0.317,0.424-0.476,1.118-0.476,2.084v4.977h-2.608
				v-9.493H517.856z"/>
		</g>
		<g>
			<path fill="#FFFFFF" d="M531.48,47.012v1.744h-1.908v4.701c0,0.44,0.073,0.735,0.221,0.881c0.146,0.147,0.44,0.221,0.881,0.221
				c0.146,0,0.288-0.006,0.421-0.019c0.136-0.012,0.265-0.03,0.386-0.055v2.02c-0.22,0.036-0.464,0.062-0.732,0.075
				c-0.27,0.011-0.534,0.017-0.79,0.017c-0.405,0-0.788-0.028-1.148-0.083c-0.361-0.055-0.679-0.161-0.954-0.319
				c-0.275-0.16-0.493-0.386-0.651-0.681c-0.16-0.295-0.24-0.68-0.24-1.156v-5.602h-1.578v-1.744h1.578v-2.846h2.608v2.846H531.48z"
				/>
		</g>
	</g>
	<g>
		<g>
			<path fill="#EDEDED" d="M1.41,6.681c0-2.796,2.287-5.084,5.084-5.084h302.613c2.796,0,6.235,1.978,7.645,4.393l23.678,40.618
				c1.408,2.415,1.408,6.368,0.001,8.784l-23.68,40.619c-1.408,2.415-4.848,4.393-7.644,4.393H6.494
				c-2.797,0-5.084-2.288-5.084-5.084V6.681z"/>
		</g>
		<g>
			<path fill="#DDDDDD" d="M309.107,101.813H6.494C2.913,101.813,0,98.899,0,95.319V6.681c0-3.58,2.913-6.494,6.494-6.494h302.613
				c3.304,0,7.196,2.236,8.862,5.092l23.678,40.618c1.668,2.861,1.669,7.344,0.001,10.205l-23.68,40.62
				C316.304,99.577,312.412,101.813,309.107,101.813z M6.494,3.007c-2.026,0-3.674,1.648-3.674,3.674v88.639
				c0,2.025,1.647,3.674,3.674,3.674h302.613c2.276,0,5.278-1.726,6.426-3.693l23.679-40.619c1.144-1.961,1.144-5.402,0-7.363
				L315.534,6.7c-1.148-1.968-4.15-3.693-6.427-3.693H6.494z"/>
		</g>
	</g>
	<g>
		<g>
			<path fill="#417300" d="M77.82,43.395l4.903,13.11h-2.994l-0.991-2.919h-4.902l-1.028,2.919h-2.901l4.958-13.11H77.82z
				 M77.986,51.438l-1.653-4.811h-0.037l-1.707,4.811H77.986z"/>
		</g>
		<g>
			<path fill="#417300" d="M88.122,48.72c-0.416,0-0.766,0.095-1.047,0.283c-0.282,0.19-0.511,0.436-0.688,0.735
				c-0.178,0.301-0.303,0.631-0.376,0.992c-0.074,0.36-0.11,0.719-0.11,1.073c0,0.344,0.036,0.691,0.11,1.047
				c0.073,0.355,0.192,0.678,0.357,0.964c0.166,0.289,0.389,0.523,0.67,0.708c0.282,0.183,0.625,0.275,1.029,0.275
				c0.624,0,1.104-0.175,1.44-0.523c0.337-0.35,0.549-0.817,0.634-1.404h2.516c-0.171,1.261-0.661,2.221-1.469,2.884
				c-0.808,0.66-1.843,0.991-3.104,0.991c-0.71,0-1.361-0.121-1.955-0.358c-0.595-0.239-1.099-0.572-1.515-1.002
				c-0.417-0.427-0.741-0.939-0.974-1.533c-0.233-0.593-0.35-1.246-0.35-1.955c0-0.734,0.107-1.417,0.322-2.048
				c0.214-0.631,0.529-1.176,0.945-1.635c0.416-0.458,0.924-0.816,1.524-1.073c0.6-0.258,1.285-0.386,2.056-0.386
				c0.563,0,1.105,0.072,1.626,0.22c0.52,0.147,0.985,0.371,1.396,0.671s0.744,0.674,1.001,1.121
				c0.257,0.446,0.403,0.975,0.44,1.588H90.05C89.879,49.265,89.235,48.72,88.122,48.72z"/>
		</g>
		<g>
			<path fill="#417300" d="M98.662,48.72c-0.417,0-0.766,0.095-1.048,0.283c-0.281,0.19-0.511,0.436-0.688,0.735
				c-0.177,0.301-0.303,0.631-0.376,0.992c-0.073,0.36-0.109,0.719-0.109,1.073c0,0.344,0.036,0.691,0.109,1.047
				s0.193,0.678,0.358,0.964c0.165,0.289,0.389,0.523,0.67,0.708c0.281,0.183,0.625,0.275,1.028,0.275
				c0.624,0,1.104-0.175,1.441-0.523c0.337-0.35,0.548-0.817,0.634-1.404h2.516c-0.172,1.261-0.661,2.221-1.469,2.884
				c-0.809,0.66-1.843,0.991-3.104,0.991c-0.71,0-1.362-0.121-1.956-0.358c-0.594-0.239-1.099-0.572-1.515-1.002
				c-0.416-0.427-0.74-0.939-0.974-1.533c-0.232-0.593-0.349-1.246-0.349-1.955c0-0.734,0.107-1.417,0.321-2.048
				c0.215-0.631,0.529-1.176,0.946-1.635c0.416-0.458,0.924-0.816,1.523-1.073c0.6-0.258,1.286-0.386,2.057-0.386
				c0.563,0,1.105,0.072,1.626,0.22c0.52,0.147,0.985,0.371,1.396,0.671c0.409,0.3,0.743,0.674,1,1.121
				c0.257,0.446,0.404,0.975,0.44,1.588h-2.552C100.418,49.265,99.775,48.72,98.662,48.72z"/>
		</g>
		<g>
			<path fill="#417300" d="M104.722,49.703c0.232-0.62,0.563-1.146,0.991-1.581c0.429-0.434,0.942-0.771,1.543-1.01
				c0.6-0.238,1.273-0.357,2.02-0.357c0.747,0,1.423,0.119,2.029,0.357s1.123,0.576,1.552,1.01c0.428,0.436,0.759,0.961,0.991,1.581
				c0.232,0.616,0.35,1.305,0.35,2.065c0,0.759-0.117,1.443-0.35,2.056c-0.232,0.613-0.563,1.136-0.991,1.57
				c-0.429,0.435-0.945,0.768-1.552,1.001c-0.606,0.232-1.282,0.35-2.029,0.35c-0.746,0-1.42-0.117-2.02-0.35
				c-0.601-0.233-1.114-0.566-1.543-1.001c-0.428-0.435-0.759-0.957-0.991-1.57c-0.232-0.612-0.35-1.297-0.35-2.056
				C104.372,51.008,104.489,50.319,104.722,49.703z M107.091,52.878c0.073,0.361,0.198,0.687,0.376,0.974
				c0.178,0.288,0.413,0.518,0.707,0.688c0.294,0.173,0.661,0.258,1.102,0.258s0.811-0.085,1.111-0.258
				c0.3-0.171,0.538-0.4,0.716-0.688c0.178-0.287,0.303-0.612,0.377-0.974c0.072-0.36,0.11-0.73,0.11-1.109
				c0-0.38-0.038-0.753-0.11-1.121c-0.074-0.366-0.199-0.691-0.377-0.972c-0.178-0.283-0.416-0.513-0.716-0.689
				c-0.301-0.179-0.671-0.267-1.111-0.267s-0.808,0.088-1.102,0.267c-0.294,0.177-0.529,0.406-0.707,0.689
				c-0.178,0.28-0.303,0.605-0.376,0.972c-0.074,0.368-0.11,0.741-0.11,1.121C106.98,52.147,107.017,52.518,107.091,52.878z"/>
		</g>
		<g>
			<path fill="#417300" d="M122.312,56.505v-1.321h-0.055c-0.33,0.551-0.76,0.948-1.285,1.192c-0.527,0.245-1.065,0.369-1.616,0.369
				c-0.698,0-1.271-0.094-1.717-0.275c-0.447-0.185-0.799-0.445-1.056-0.782c-0.258-0.336-0.438-0.746-0.542-1.229
				s-0.156-1.02-0.156-1.607v-5.839h2.607v5.362c0,0.782,0.122,1.367,0.367,1.753s0.68,0.578,1.304,0.578
				c0.71,0,1.225-0.21,1.543-0.633s0.478-1.117,0.478-2.084v-4.977h2.607v9.493H122.312z"/>
		</g>
		<g>
			<path fill="#417300" d="M129.254,47.012v1.322h0.055c0.331-0.551,0.759-0.951,1.286-1.203c0.525-0.251,1.064-0.376,1.615-0.376
				c0.698,0,1.27,0.095,1.717,0.285c0.447,0.189,0.799,0.453,1.056,0.789c0.257,0.337,0.438,0.747,0.542,1.229
				c0.104,0.484,0.156,1.019,0.156,1.608v5.838h-2.607v-5.361c0-0.782-0.123-1.369-0.367-1.755c-0.245-0.386-0.68-0.578-1.304-0.578
				c-0.71,0-1.225,0.212-1.543,0.634c-0.318,0.424-0.478,1.118-0.478,2.084v4.977h-2.607v-9.493H129.254z"/>
		</g>
		<g>
			<path fill="#417300" d="M142.878,47.012v1.744h-1.909v4.701c0,0.44,0.073,0.735,0.221,0.881c0.146,0.147,0.44,0.221,0.881,0.221
				c0.146,0,0.288-0.006,0.422-0.019c0.135-0.012,0.264-0.03,0.386-0.055v2.02c-0.22,0.036-0.465,0.062-0.733,0.075
				c-0.271,0.011-0.533,0.017-0.79,0.017c-0.404,0-0.787-0.028-1.147-0.083c-0.362-0.055-0.68-0.161-0.955-0.319
				c-0.275-0.16-0.493-0.386-0.652-0.681s-0.238-0.68-0.238-1.156v-5.602h-1.579v-1.744h1.579v-2.846h2.607v2.846H142.878z"/>
		</g>
		<g>
			<path fill="#417300" d="M152.353,56.505l-4.242-13.11h2.957l2.92,9.218h0.036l2.957-9.218h2.974l-4.351,13.11H152.353z"/>
		</g>
		<g>
			<path fill="#417300" d="M162.581,54.228c0.392,0.38,0.955,0.57,1.689,0.57c0.526,0,0.979-0.132,1.358-0.396
				c0.38-0.263,0.612-0.541,0.698-0.836h2.295c-0.367,1.139-0.93,1.953-1.688,2.443c-0.76,0.49-1.678,0.735-2.755,0.735
				c-0.746,0-1.42-0.121-2.02-0.358c-0.601-0.239-1.108-0.578-1.524-1.021c-0.417-0.44-0.737-0.967-0.964-1.579
				c-0.227-0.611-0.34-1.285-0.34-2.019c0-0.711,0.116-1.372,0.349-1.983c0.232-0.612,0.563-1.143,0.991-1.589
				c0.43-0.446,0.94-0.799,1.533-1.056c0.594-0.258,1.252-0.386,1.975-0.386c0.808,0,1.512,0.155,2.111,0.468
				s1.093,0.731,1.479,1.258c0.386,0.527,0.664,1.126,0.836,1.801c0.171,0.672,0.231,1.377,0.183,2.111h-6.849
				C161.976,53.236,162.189,53.849,162.581,54.228z M165.528,49.234c-0.312-0.344-0.787-0.515-1.423-0.515
				c-0.417,0-0.762,0.07-1.037,0.212c-0.275,0.141-0.496,0.314-0.661,0.523c-0.165,0.206-0.282,0.427-0.35,0.661
				c-0.067,0.231-0.107,0.44-0.119,0.623h4.241C166.058,50.077,165.841,49.576,165.528,49.234z"/>
		</g>
		<g>
			<path fill="#417300" d="M172.809,47.012v1.763h0.037c0.122-0.294,0.287-0.565,0.495-0.817c0.208-0.251,0.447-0.464,0.717-0.642
				c0.269-0.178,0.557-0.315,0.863-0.413c0.306-0.1,0.623-0.147,0.955-0.147c0.17,0,0.36,0.031,0.568,0.092v2.424
				c-0.123-0.024-0.27-0.047-0.44-0.063c-0.172-0.02-0.337-0.027-0.496-0.027c-0.477,0-0.881,0.08-1.212,0.236
				c-0.33,0.16-0.597,0.378-0.799,0.653s-0.346,0.598-0.432,0.964c-0.086,0.367-0.128,0.766-0.128,1.193v4.278h-2.607v-9.493
				H172.809z"/>
		</g>
		<g>
			<path fill="#417300" d="M177.546,45.543v-2.148h2.607v2.148H177.546z M180.153,47.012v9.493h-2.607v-9.493H180.153z"/>
		</g>
		<g>
			<path fill="#417300" d="M181.219,48.756v-1.744h1.561v-0.735c0-0.844,0.263-1.535,0.79-2.073c0.525-0.54,1.321-0.809,2.387-0.809
				c0.232,0,0.465,0.01,0.697,0.027c0.233,0.019,0.459,0.035,0.68,0.046v1.947c-0.307-0.037-0.624-0.056-0.955-0.056
				c-0.355,0-0.608,0.083-0.762,0.248s-0.229,0.443-0.229,0.835v0.569h1.8v1.744h-1.8v7.749h-2.607v-7.749H181.219z"/>
		</g>
		<g>
			<path fill="#417300" d="M188.398,45.543v-2.148h2.607v2.148H188.398z M191.006,47.012v9.493h-2.607v-9.493H191.006z"/>
		</g>
		<g>
			<path fill="#417300" d="M197.598,48.72c-0.416,0-0.766,0.095-1.047,0.283c-0.281,0.19-0.511,0.436-0.688,0.735
				c-0.178,0.301-0.303,0.631-0.376,0.992c-0.073,0.36-0.11,0.719-0.11,1.073c0,0.344,0.037,0.691,0.11,1.047
				s0.193,0.678,0.358,0.964c0.165,0.289,0.388,0.523,0.67,0.708c0.281,0.183,0.624,0.275,1.028,0.275
				c0.624,0,1.104-0.175,1.441-0.523c0.336-0.35,0.548-0.817,0.633-1.404h2.517c-0.172,1.261-0.661,2.221-1.469,2.884
				c-0.809,0.66-1.844,0.991-3.104,0.991c-0.71,0-1.361-0.121-1.955-0.358c-0.594-0.239-1.099-0.572-1.515-1.002
				c-0.417-0.427-0.741-0.939-0.974-1.533c-0.232-0.593-0.349-1.246-0.349-1.955c0-0.734,0.107-1.417,0.321-2.048
				s0.529-1.176,0.946-1.635c0.415-0.458,0.924-0.816,1.523-1.073c0.6-0.258,1.285-0.386,2.057-0.386
				c0.563,0,1.104,0.072,1.625,0.22s0.985,0.371,1.396,0.671s0.744,0.674,1.001,1.121c0.257,0.446,0.404,0.975,0.44,1.588h-2.552
				C199.354,49.265,198.712,48.72,197.598,48.72z"/>
		</g>
		<g>
			<path fill="#417300" d="M203.492,49.932c0.037-0.611,0.189-1.121,0.459-1.523c0.269-0.404,0.612-0.729,1.027-0.975
				c0.417-0.244,0.885-0.419,1.405-0.523c0.521-0.104,1.044-0.155,1.57-0.155c0.477,0,0.961,0.034,1.45,0.101
				c0.49,0.068,0.937,0.199,1.341,0.395c0.404,0.197,0.734,0.469,0.991,0.817c0.257,0.35,0.386,0.812,0.386,1.388v4.938
				c0,0.43,0.024,0.841,0.074,1.231c0.049,0.391,0.134,0.686,0.257,0.881h-2.645c-0.05-0.146-0.089-0.297-0.119-0.448
				c-0.03-0.154-0.053-0.31-0.064-0.47c-0.417,0.428-0.906,0.729-1.47,0.899c-0.562,0.172-1.138,0.259-1.726,0.259
				c-0.453,0-0.875-0.056-1.267-0.165c-0.392-0.11-0.735-0.282-1.028-0.516c-0.294-0.232-0.523-0.525-0.689-0.881
				c-0.165-0.355-0.247-0.776-0.247-1.267c0-0.54,0.095-0.983,0.284-1.332s0.435-0.627,0.735-0.836
				c0.299-0.208,0.642-0.363,1.027-0.468c0.386-0.104,0.774-0.187,1.167-0.248c0.392-0.061,0.777-0.11,1.156-0.146
				c0.38-0.037,0.716-0.092,1.01-0.165c0.294-0.074,0.526-0.182,0.698-0.322c0.171-0.141,0.25-0.346,0.238-0.614
				c0-0.282-0.046-0.507-0.138-0.672s-0.214-0.292-0.367-0.386c-0.153-0.091-0.331-0.151-0.532-0.182
				c-0.202-0.031-0.42-0.047-0.652-0.047c-0.514,0-0.918,0.11-1.212,0.331c-0.294,0.22-0.465,0.586-0.514,1.102H203.492z
				 M209.515,51.859c-0.11,0.099-0.248,0.175-0.413,0.229c-0.165,0.056-0.343,0.101-0.533,0.138
				c-0.188,0.037-0.388,0.067-0.596,0.093c-0.209,0.024-0.417,0.055-0.625,0.091c-0.195,0.037-0.389,0.085-0.578,0.147
				c-0.189,0.062-0.355,0.145-0.495,0.248c-0.142,0.103-0.255,0.235-0.341,0.395c-0.085,0.16-0.128,0.361-0.128,0.606
				c0,0.231,0.043,0.428,0.128,0.586c0.086,0.16,0.203,0.285,0.35,0.378c0.146,0.091,0.317,0.155,0.514,0.192
				c0.196,0.036,0.397,0.056,0.606,0.056c0.515,0,0.911-0.086,1.193-0.258c0.281-0.171,0.489-0.376,0.624-0.615
				c0.135-0.238,0.218-0.479,0.248-0.725s0.046-0.44,0.046-0.588V51.859z"/>
		</g>
		<g>
			<path fill="#417300" d="M219.356,47.012v1.744h-1.909v4.701c0,0.44,0.073,0.735,0.221,0.881c0.146,0.147,0.44,0.221,0.881,0.221
				c0.146,0,0.288-0.006,0.422-0.019c0.135-0.012,0.264-0.03,0.386-0.055v2.02c-0.221,0.036-0.465,0.062-0.734,0.075
				c-0.27,0.011-0.532,0.017-0.789,0.017c-0.404,0-0.787-0.028-1.148-0.083s-0.679-0.161-0.954-0.319
				c-0.275-0.16-0.493-0.386-0.652-0.681s-0.238-0.68-0.238-1.156v-5.602h-1.579v-1.744h1.579v-2.846h2.607v2.846H219.356z"/>
		</g>
		<g>
			<path fill="#417300" d="M220.679,45.543v-2.148h2.607v2.148H220.679z M223.286,47.012v9.493h-2.607v-9.493H223.286z"/>
		</g>
		<g>
			<path fill="#417300" d="M225.398,49.703c0.232-0.62,0.562-1.146,0.991-1.581c0.429-0.434,0.942-0.771,1.543-1.01
				c0.6-0.238,1.272-0.357,2.02-0.357s1.423,0.119,2.028,0.357c0.607,0.238,1.123,0.576,1.553,1.01
				c0.428,0.436,0.759,0.961,0.991,1.581c0.232,0.616,0.349,1.305,0.349,2.065c0,0.759-0.116,1.443-0.349,2.056
				c-0.232,0.613-0.563,1.136-0.991,1.57c-0.43,0.435-0.945,0.768-1.553,1.001c-0.605,0.232-1.281,0.35-2.028,0.35
				s-1.42-0.117-2.02-0.35c-0.601-0.233-1.114-0.566-1.543-1.001s-0.759-0.957-0.991-1.57c-0.233-0.612-0.35-1.297-0.35-2.056
				C225.049,51.008,225.165,50.319,225.398,49.703z M227.768,52.878c0.072,0.361,0.198,0.687,0.376,0.974
				c0.178,0.288,0.413,0.518,0.707,0.688c0.294,0.173,0.661,0.258,1.102,0.258s0.811-0.085,1.111-0.258
				c0.299-0.171,0.538-0.4,0.716-0.688c0.178-0.287,0.303-0.612,0.377-0.974c0.072-0.36,0.109-0.73,0.109-1.109
				c0-0.38-0.037-0.753-0.109-1.121c-0.074-0.366-0.199-0.691-0.377-0.972c-0.178-0.283-0.417-0.513-0.716-0.689
				c-0.301-0.179-0.671-0.267-1.111-0.267s-0.808,0.088-1.102,0.267c-0.294,0.177-0.529,0.406-0.707,0.689
				c-0.178,0.28-0.304,0.605-0.376,0.972c-0.074,0.368-0.11,0.741-0.11,1.121C227.657,52.147,227.693,52.518,227.768,52.878z"/>
		</g>
		<g>
			<path fill="#417300" d="M239.042,47.012v1.322h0.055c0.33-0.551,0.759-0.951,1.285-1.203c0.526-0.251,1.064-0.376,1.616-0.376
				c0.697,0,1.27,0.095,1.717,0.285c0.446,0.189,0.799,0.453,1.056,0.789c0.257,0.337,0.438,0.747,0.541,1.229
				c0.104,0.484,0.156,1.019,0.156,1.608v5.838h-2.607v-5.361c0-0.782-0.122-1.369-0.366-1.755c-0.245-0.386-0.68-0.578-1.305-0.578
				c-0.71,0-1.224,0.212-1.542,0.634c-0.318,0.424-0.478,1.118-0.478,2.084v4.977h-2.607v-9.493H239.042z"/>
		</g>
	</g>
</g>
</svg>
